<svg height="640pt" viewBox="0 0 893 640" width="893pt" xmlns="http://www.w3.org/2000/svg" xmlns:xlink="http://www.w3.org/1999/xlink"><defs><style>*{stroke-linecap:butt;stroke-linejoin:round}</style></defs><g id="figure_1"><path d="M0 640.344h893.758V0H0z" fill="#fff" id="patch_1"/><g id="axes_1"><path d="M46.058 596.631h837v-554.4h-837z" fill="#fff" id="patch_2"/><g id="matplotlib.axis_1"><g id="xtick_1"><g id="line2d_1"><defs><path d="M0 0v3.5" id="m837e9aeacc" stroke="#000" stroke-width=".8"/></defs><use x="46.058" xlink:href="#m837e9aeacc" y="596.631" stroke="#000" stroke-width=".8"/></g><g id="text_1"><defs><path d="M50.688 31.89q0-7.328-1.47-13.359-1.468-6.031-4.452-10.36-2.97-4.312-7.391-6.687Q32.953-.875 27-.875q-5.125 0-9.328 1.922-4.188 1.937-7.172 5.937T5.906 17.188q-1.61 6.203-1.61 14.703 0 7.312 1.485 13.359 1.5 6.063 4.453 10.39 2.954 4.329 7.391 6.688 4.453 2.375 10.36 2.375 5.124 0 9.312-1.937 4.203-1.922 7.187-5.953 2.985-4.032 4.594-10.235 1.61-6.203 1.61-14.687zm-8.594-.296q0 1.656-.125 3.297-.125 1.64-.266 3.203l-27-20.078q.735-2.532 1.844-4.688 1.125-2.14 2.703-3.687 1.594-1.532 3.625-2.391 2.031-.86 4.61-.86 3.328 0 6.03 1.61 2.72 1.625 4.626 4.797 1.906 3.172 2.922 7.875 1.03 4.719 1.03 10.922zm-29.203.578q0-1.5.015-3.016.031-1.515.188-2.937l27 19.968q-.735 2.5-1.86 4.547-1.125 2.047-2.687 3.532-1.563 1.5-3.563 2.328-2 .828-4.5.828-3.312 0-6.03-1.61-2.704-1.609-4.61-4.812-1.907-3.203-2.938-7.922-1.015-4.703-1.015-10.906z" id="Consolas-30"/></defs><use xlink:href="#Consolas-30" transform="matrix(.14 0 0 -.14 42.209 613.291)"/></g></g><g id="xtick_2"><use x="148.131" xlink:href="#m837e9aeacc" y="596.631" stroke="#000" stroke-width=".8" id="line2d_2"/><g id="text_2"><defs><path d="M48.688 0H8.593v7.906H25V54.5L9.719 46.187l-3.125 7.235 20.312 10.687h7.516V7.906h14.266z" id="Consolas-31"/></defs><g transform="matrix(.14 0 0 -.14 140.433 613.291)"><use xlink:href="#Consolas-31"/><use x="54.98" xlink:href="#Consolas-30"/></g></g></g><g id="xtick_3"><use x="250.204" xlink:href="#m837e9aeacc" y="596.631" stroke="#000" stroke-width=".8" id="line2d_3"/><g id="text_3"><defs><path d="M49.219 0H7.172v7.625l16.515 16.406q4.047 4 6.579 6.922 2.547 2.938 3.953 5.344 1.422 2.422 1.906 4.562.5 2.157.5 4.657 0 2.343-.64 4.453-.626 2.125-1.954 3.734-1.312 1.625-3.422 2.547-2.093.922-5.015.922-4.063 0-7.39-1.813-3.313-1.797-6.095-4.672l-4.687 5.61q3.61 3.812 8.312 6.11 4.72 2.296 10.97 2.296 4.25 0 7.733-1.281 3.5-1.266 6.032-3.656 2.547-2.391 3.937-5.86 1.39-3.468 1.39-7.812 0-3.657-.983-6.782-.97-3.124-2.954-6.234-1.968-3.094-4.968-6.422-3-3.312-7.11-7.265L18.22 8.109h31z" id="Consolas-32"/></defs><g transform="matrix(.14 0 0 -.14 242.506 613.291)"><use xlink:href="#Consolas-32"/><use x="54.98" xlink:href="#Consolas-30"/></g></g></g><g id="xtick_4"><use x="352.277" xlink:href="#m837e9aeacc" y="596.631" stroke="#000" stroke-width=".8" id="line2d_4"/><g id="text_4"><defs><path d="M48 19.39q0-4.203-1.719-7.89-1.703-3.688-5.125-6.453-3.406-2.75-8.593-4.344Q27.39-.875 20.515-.875q-3.813 0-6.844.25Q10.64-.391 8.016 0v7.625q3.015-.547 6.39-.844 3.375-.281 6.89-.281 4.782 0 8.173.844 3.39.86 5.531 2.468 2.156 1.61 3.125 3.907.984 2.297.984 5.172 0 2.64-1.172 4.593-1.171 1.953-3.296 3.266-2.125 1.328-5.078 1.984-2.954.657-6.47.657h-7.265v6.984h7.36q2.89 0 5.25.75 2.375.766 4.062 2.172 1.688 1.422 2.578 3.5.906 2.078.906 4.719 0 5.125-3.125 7.468-3.125 2.344-9.172 2.344-3.234 0-6.656-.64-3.406-.626-7.312-1.907v7.422q1.656.594 3.531 1.047 1.89.469 3.766.781 1.875.328 3.734.5 1.86.172 3.563.172 5.078 0 8.937-1.11 3.86-1.093 6.438-3.14 2.593-2.047 3.906-4.984 1.328-2.922 1.328-6.594 0-5.469-2.813-9.188-2.797-3.703-7.687-5.89 2.5-.39 4.906-1.563 2.422-1.172 4.344-3.015 1.937-1.828 3.125-4.328Q48 22.406 48 19.39z" id="Consolas-33"/></defs><g transform="matrix(.14 0 0 -.14 344.58 613.291)"><use xlink:href="#Consolas-33"/><use x="54.98" xlink:href="#Consolas-30"/></g></g></g><g id="xtick_5"><use x="454.35" xlink:href="#m837e9aeacc" y="596.631" stroke="#000" stroke-width=".8" id="line2d_5"/><g id="text_5"><defs><path d="M52.39 14.11H41.5V0h-8.688v14.11H2.095v7.468l27.203 42.234H41.5V21.578h10.89zm-19.578 41.5L10.595 21.577h22.218z" id="Consolas-34"/></defs><g transform="matrix(.14 0 0 -.14 446.653 613.291)"><use xlink:href="#Consolas-34"/><use x="54.98" xlink:href="#Consolas-30"/></g></g></g><g id="xtick_6"><use x="556.424" xlink:href="#m837e9aeacc" y="596.631" stroke="#000" stroke-width=".8" id="line2d_6"/><g id="text_6"><defs><path d="M47.61 20.406q0-4.734-2.063-8.64-2.047-3.907-5.64-6.72-3.579-2.796-8.47-4.359-4.875-1.562-10.53-1.562-1.423 0-3.063.078-1.625.063-3.25.188-1.61.125-3.156.265-1.532.14-2.75.344v7.719q2.64-.64 6.03-.938 3.391-.281 6.86-.281 3.906 0 7.031.922 3.125.922 5.328 2.656 2.204 1.735 3.376 4.203 1.171 2.469 1.171 5.547 0 5.953-4.28 8.656-4.267 2.72-12.282 2.72H9.812v32.608h34.376v-7.421h-26.36V38.484h5.563q4.593 0 8.937-.843 4.344-.828 7.734-2.907 3.391-2.062 5.47-5.562 2.077-3.485 2.077-8.766z" id="Consolas-35"/></defs><g transform="matrix(.14 0 0 -.14 548.726 613.291)"><use xlink:href="#Consolas-35"/><use x="54.98" xlink:href="#Consolas-30"/></g></g></g><g id="xtick_7"><use x="658.497" xlink:href="#m837e9aeacc" y="596.631" stroke="#000" stroke-width=".8" id="line2d_7"/><g id="text_7"><defs><path d="M50 20.219q0-4.39-1.594-8.25-1.578-3.86-4.515-6.719-2.922-2.86-7.047-4.5-4.125-1.625-9.157-1.625-5.28 0-9.328 1.672-4.047 1.687-6.78 5.172-2.735 3.5-4.157 8.828Q6 20.125 6 27.39q0 4.89.64 9.468.641 4.594 2.094 8.641 1.47 4.063 3.907 7.422 2.453 3.375 6.078 5.797 3.64 2.422 8.578 3.75 4.937 1.343 11.422 1.343h6.297v-7.421h-6.828q-5.72 0-9.922-1.375-4.188-1.36-7.032-3.844-2.828-2.484-4.343-6-1.516-3.516-1.907-7.86l-.187-2.015q3.078 1.812 7.094 2.906 4.03 1.11 8.718 1.11 4.844 0 8.47-1.422 3.64-1.422 6.062-3.938 2.422-2.5 3.64-6.016Q50 24.422 50 20.22zm-8.89-.547q0 2.937-.704 5.297-.703 2.375-2.218 4-1.516 1.64-3.844 2.547-2.313.906-5.532.906-1.859 0-3.765-.344-1.906-.344-3.735-.953-1.828-.61-3.5-1.39-1.656-.782-3.015-1.657 0-6.297.875-10.531.875-4.219 2.61-6.766 1.734-2.531 4.265-3.61 2.547-1.062 5.875-1.062 2.781 0 5.094.891 2.328.906 4 2.656 1.687 1.766 2.64 4.281.953 2.516.953 5.735z" id="Consolas-36"/></defs><g transform="matrix(.14 0 0 -.14 650.799 613.291)"><use xlink:href="#Consolas-36"/><use x="54.98" xlink:href="#Consolas-30"/></g></g></g><g id="xtick_8"><use x="760.57" xlink:href="#m837e9aeacc" y="596.631" stroke="#000" stroke-width=".8" id="line2d_8"/><g id="text_8"><defs><path d="M48.875 55.906L22.125 0h-9.719l27.782 55.906H5.718v7.907h43.157z" id="Consolas-37"/></defs><g transform="matrix(.14 0 0 -.14 752.872 613.291)"><use xlink:href="#Consolas-37"/><use x="54.98" xlink:href="#Consolas-30"/></g></g></g><g id="xtick_9"><use x="862.643" xlink:href="#m837e9aeacc" y="596.631" stroke="#000" stroke-width=".8" id="line2d_9"/><g id="text_9"><defs><path d="M49.219 16.016q0-4.047-1.657-7.203-1.656-3.141-4.64-5.297Q39.938 1.375 35.89.25T27.094-.875q-5.219 0-9.203 1.172-3.97 1.172-6.657 3.265-2.687 2.11-4.062 4.985-1.36 2.875-1.36 6.344 0 5.859 3.266 10.109 3.281 4.25 10.11 7.719-6.25 3.172-9.141 7.047-2.875 3.89-2.875 8.922 0 3.078 1.266 5.953 1.28 2.875 3.843 5.125 2.563 2.25 6.422 3.593 3.86 1.344 9.078 1.344 4.938 0 8.672-1.062 3.734-1.047 6.266-3 2.547-1.953 3.812-4.735 1.266-2.781 1.266-6.203 0-5.562-3.094-9.469-3.094-3.906-8.812-6.828 2.828-1.422 5.265-3.14 2.453-1.703 4.25-3.813 1.813-2.094 2.813-4.687 1-2.578 1-5.75zM39.109 49.03q0 4.344-3.047 6.469-3.046 2.125-8.578 2.125-5.468 0-8.515-2.11-3.047-2.093-3.047-6.296 0-1.907.734-3.516.735-1.61 2.266-3.031 1.531-1.406 3.828-2.781 2.297-1.36 5.469-2.782 5.515 2.594 8.203 5.391 2.687 2.813 2.687 6.531zm.875-33.656q0 1.813-.593 3.516-.578 1.718-2.094 3.375-1.5 1.656-4.047 3.312Q30.719 27.25 26.812 29q-3.328-1.61-5.593-3.203-2.266-1.578-3.672-3.219-1.39-1.625-1.985-3.39-.578-1.75-.578-3.704 0-2.203.954-3.89.953-1.688 2.609-2.86 1.672-1.171 3.969-1.765 2.297-.578 4.968-.578 2.594 0 4.891.53 2.297.548 3.969 1.641Q38.03 9.672 39 11.345q.984 1.687.984 4.031z" id="Consolas-38"/></defs><g transform="matrix(.14 0 0 -.14 854.945 613.291)"><use xlink:href="#Consolas-38"/><use x="54.98" xlink:href="#Consolas-30"/></g></g></g><g id="text_10"><defs><path d="M50.781 56.39h-18.89V0h-8.797v56.39H4.204v7.422H50.78z" id="Consolas-54"/><path d="M24.516 42h-14.5v7.031h23.093V7.078h14.594V0H8.406v7.078h16.11zm2.968 27.578q1.422 0 2.641-.516 1.219-.5 2.125-1.437.906-.922 1.422-2.125.516-1.188.516-2.61 0-1.359-.516-2.593-.516-1.219-1.422-2.14-.906-.923-2.125-1.438-1.219-.516-2.64-.516-1.407 0-2.626.516-1.218.515-2.125 1.437-.906.922-1.422 2.14-.515 1.235-.515 2.595 0 1.422.515 2.609.516 1.203 1.422 2.125.907.938 2.125 1.438 1.22.515 2.625.515z" id="Consolas-69"/><path d="M42.781 0v35.203q0 2.297-.172 3.766-.172 1.468-.547 2.312-.359.86-.921 1.203-.563.344-1.391.344-.984 0-1.813-.594-.828-.578-1.78-1.906-.954-1.312-2.11-3.484-1.14-2.172-2.703-5.344V0h-7.766v34.281q0 2.688-.172 4.344-.156 1.656-.531 2.578-.36.938-.953 1.281-.578.344-1.406.344-.891 0-1.672-.5-.782-.484-1.735-1.75-.953-1.266-2.125-3.469-1.171-2.203-2.78-5.609V0H4.39v49.031h6.5l.39-9.328q1.266 2.781 2.453 4.734 1.204 1.954 2.47 3.141 1.28 1.203 2.718 1.766 1.437.562 3.203.562 3.953 0 6-2.593 2.047-2.579 2.047-8 1.172 2.53 2.297 4.5 1.125 1.984 2.422 3.328 1.297 1.343 2.859 2.047 1.563.718 3.61.718 9.234 0 9.234-14.218V0z" id="Consolas-6d"/><path d="M49.219 27.094q0-1.797-.047-3.016t-.14-2.297H14.593q0-7.515 4.203-11.547 4.203-4.03 12.11-4.03 2.155 0 4.296.171 2.156.172 4.156.453 2 .297 3.828.656 1.829.375 3.391.813V1.312Q43.11.345 38.734-.266q-4.359-.609-9.047-.609-6.296 0-10.843 1.703-4.532 1.719-7.438 4.953Q8.5 9.031 7.11 13.734q-1.39 4.72-1.39 10.688 0 5.172 1.484 9.781 1.484 4.61 4.344 8.094 2.86 3.5 7 5.547 4.156 2.062 9.437 2.062 5.125 0 9.078-1.61 3.954-1.608 6.657-4.577 2.718-2.953 4.11-7.172 1.39-4.219 1.39-9.453zm-8.844 1.234q.156 3.266-.625 5.969-.781 2.719-2.422 4.672-1.64 1.953-4.078 3.047-2.438 1.093-5.656 1.093-2.782 0-5.078-1.078-2.297-1.062-3.97-3.015-1.655-1.953-2.687-4.688-1.015-2.734-1.265-6z" id="Consolas-65"/><path d="M46.625 13.375q0-2.578-.875-4.64-.875-2.047-2.39-3.641-1.516-1.578-3.516-2.703-2-1.125-4.282-1.86-2.265-.734-4.656-1.062-2.39-.344-4.687-.344-4.985 0-9.157.438Q12.892 0 8.892.984v7.813q4.296-1.235 8.546-1.875 4.25-.625 8.438-.625 6.11 0 9.031 1.656 2.938 1.672 2.938 4.75 0 1.313-.469 2.36-.453 1.046-1.688 2-1.218.953-3.78 1.968-2.563 1.032-7 2.36-3.329.968-6.141 2.218-2.797 1.25-4.86 2.953-2.047 1.704-3.219 4-1.171 2.297-1.171 5.422 0 2.047.953 4.485.953 2.453 3.25 4.547 2.297 2.109 6.203 3.5 3.906 1.39 9.765 1.39 2.875 0 6.391-.328 3.516-.312 7.328-1.094v-7.562q-4 .969-7.593 1.437-3.579.47-6.22.47-3.171 0-5.343-.5-2.172-.485-3.516-1.345-1.343-.843-1.937-2-.578-1.14-.578-2.453 0-1.328.5-2.406.515-1.063 1.906-2.063 1.39-1 3.875-2.015 2.5-1 6.5-2.172 4.36-1.266 7.328-2.656 2.984-1.39 4.828-3.11 1.86-1.703 2.657-3.859.812-2.14.812-4.875z" id="Consolas-73"/><path d="M7.813 49.031h7.562l.344-7.922q2.156 2.547 4.156 4.22 2 1.687 3.922 2.718 1.937 1.031 3.937 1.437 2 .422 4.157.422 7.562 0 11.437-4.468 3.89-4.47 3.89-13.454V0h-8.5v31.297q0 5.765-2.156 8.515-2.14 2.766-6.39 2.766-1.563 0-3.047-.469-1.484-.453-3.11-1.609-1.609-1.14-3.484-3.094-1.875-1.953-4.218-4.89V0h-8.5z" id="Consolas-6e"/><path d="M45.906 1.813Q42.578.53 39.078-.079q-3.484-.61-7.187-.61-11.625 0-17.907 6.297Q7.72 11.922 7.72 24.031q0 5.797 1.797 10.532 1.812 4.75 5.078 8.109 3.281 3.375 7.812 5.203 4.547 1.828 10.016 1.828 3.812 0 7.125-.531 3.328-.531 6.36-1.766v-8.093q-3.188 1.656-6.485 2.406-3.281.765-6.797.765-3.281 0-6.188-1.25-2.906-1.25-5.109-3.593-2.187-2.344-3.453-5.72-1.266-3.358-1.266-7.608 0-8.875 4.313-13.297 4.328-4.422 11.984-4.422 3.469 0 6.719.781 3.25.781 6.281 2.344z" id="Consolas-63"/><path d="M47.313.688Q44.437-.047 41.358-.36q-3.078-.329-6.25-.329-9.234 0-13.78 4.172-4.532 4.188-4.532 12.829V41.89H3.078v7.14h13.719V62.5l8.5 2.203V49.031h22.015v-7.14H25.297V17q0-5.281 2.797-7.89 2.812-2.61 8.281-2.61 2.344 0 5.125.36 2.781.374 5.813 1.156z" id="Consolas-74"/><path d="M39.313 0l-.204 6.594q-4-3.953-8.125-5.719-4.125-1.75-8.672-1.75-4.203 0-7.187 1.063-2.969 1.078-4.906 2.953Q8.297 5.03 7.39 7.562 6.5 10.11 6.5 13.095q0 7.36 5.484 11.531 5.5 4.188 16.235 4.188h10.156v4.296q0 4.344-2.781 6.953-2.782 2.61-8.5 2.61-4.14 0-8.172-.922-4.031-.922-8.328-2.64v7.671q1.61.578 3.578 1.14 1.984.563 4.187 1 2.203.438 4.594.704 2.39.281 4.828.281 4.453 0 8.016-.984 3.562-.969 6.016-2.969 2.468-2 3.78-5.031 1.329-3.031 1.329-7.125V0zm-.938 22.313H27.594q-3.172 0-5.469-.641-2.297-.625-3.766-1.797-1.468-1.172-2.172-2.813-.703-1.625-.703-3.687 0-1.406.438-2.703.437-1.297 1.406-2.297.985-1 2.547-1.594 1.563-.578 3.813-.578 2.921 0 6.703 1.781 3.797 1.782 7.984 5.641z" id="Consolas-61"/><path d="M9.813 49.031h7.765l.25-9.047q4.344 5.235 8.563 7.578 4.218 2.344 8.515 2.344 7.625 0 11.547-4.937 3.938-4.922 3.64-14.64H41.5q.156 6.437-1.875 9.343-2.031 2.906-5.938 2.906-1.703 0-3.437-.61-1.734-.609-3.563-1.952-1.828-1.344-3.89-3.453-2.047-2.094-4.39-5.063V0H9.811z" id="Consolas-72"/><path d="M37.156-20.516q-22.5 20.86-22.5 46.11 0 5.906 1.188 11.781 1.203 5.89 3.86 11.797 2.655 5.906 7.03 11.812 4.375 5.907 10.625 11.72l4.922-5.032Q23.344 48.969 23.344 26.219q0-11.328 4.781-21.782Q32.906-6 42.281-15.28z" id="Consolas-28"/><path d="M47.219 0h-7.625l-.282 7.906q-2.203-2.531-4.187-4.218Q33.156 2 31.203.967 29.25-.046 27.266-.452q-1.97-.422-4.172-.422-7.563 0-11.422 4.438Q7.812 8.015 7.812 17v32.031h8.5v-31.36q0-11.28 8.5-11.28 1.563 0 3.047.468 1.485.47 3.125 1.61 1.641 1.156 3.516 3.11 1.875 1.952 4.219 4.921v32.531h8.5z" id="Consolas-75"/><path d="M17.828 72.703q22.5-20.844 22.5-46.39 0-5.266-1.078-10.938-1.063-5.656-3.656-11.594Q33.016-2.156 28.64-8.25q-4.375-6.11-11.016-12.266l-4.922 5.032Q22.22-6.063 26.906 4.188q4.688 10.265 4.688 21.5 0 23.234-18.89 41.796z" id="Consolas-29"/></defs><g transform="matrix(.14 0 0 -.14 364.486 630.272)"><use xlink:href="#Consolas-54"/><use x="54.98" xlink:href="#Consolas-69"/><use x="109.961" xlink:href="#Consolas-6d"/><use x="164.941" xlink:href="#Consolas-65"/><use x="219.922" xlink:href="#Consolas-20"/><use x="274.902" xlink:href="#Consolas-73"/><use x="329.883" xlink:href="#Consolas-69"/><use x="384.863" xlink:href="#Consolas-6e"/><use x="439.844" xlink:href="#Consolas-63"/><use x="494.824" xlink:href="#Consolas-65"/><use x="549.805" xlink:href="#Consolas-20"/><use x="604.785" xlink:href="#Consolas-73"/><use x="659.766" xlink:href="#Consolas-74"/><use x="714.746" xlink:href="#Consolas-61"/><use x="769.727" xlink:href="#Consolas-72"/><use x="824.707" xlink:href="#Consolas-74"/><use x="879.688" xlink:href="#Consolas-20"/><use x="934.668" xlink:href="#Consolas-28"/><use x="989.648" xlink:href="#Consolas-6d"/><use x="1044.629" xlink:href="#Consolas-69"/><use x="1099.609" xlink:href="#Consolas-6e"/><use x="1154.59" xlink:href="#Consolas-75"/><use x="1209.57" xlink:href="#Consolas-74"/><use x="1264.551" xlink:href="#Consolas-65"/><use x="1319.531" xlink:href="#Consolas-73"/><use x="1374.512" xlink:href="#Consolas-29"/></g></g></g><g id="matplotlib.axis_2"><g id="ytick_1"><g id="line2d_10"><defs><path d="M0 0h-3.5" id="m92eb66162b" stroke="#000" stroke-width=".8"/></defs><use x="46.058" xlink:href="#m92eb66162b" y="596.631" stroke="#000" stroke-width=".8"/></g><use xlink:href="#Consolas-30" transform="matrix(.14 0 0 -.14 31.36 601.461)" id="text_11"/></g><g id="ytick_2"><use x="46.058" xlink:href="#m92eb66162b" y="509.187" stroke="#000" stroke-width=".8" id="line2d_11"/><g transform="matrix(.14 0 0 -.14 23.662 514.017)" id="text_12"><use xlink:href="#Consolas-31"/><use x="54.98" xlink:href="#Consolas-30"/></g></g><g id="ytick_3"><use x="46.058" xlink:href="#m92eb66162b" y="421.742" stroke="#000" stroke-width=".8" id="line2d_12"/><g transform="matrix(.14 0 0 -.14 23.662 426.572)" id="text_13"><use xlink:href="#Consolas-32"/><use x="54.98" xlink:href="#Consolas-30"/></g></g><g id="ytick_4"><use x="46.058" xlink:href="#m92eb66162b" y="334.297" stroke="#000" stroke-width=".8" id="line2d_13"/><g transform="matrix(.14 0 0 -.14 23.662 339.127)" id="text_14"><use xlink:href="#Consolas-33"/><use x="54.98" xlink:href="#Consolas-30"/></g></g><g id="ytick_5"><use x="46.058" xlink:href="#m92eb66162b" y="246.852" stroke="#000" stroke-width=".8" id="line2d_14"/><g transform="matrix(.14 0 0 -.14 23.662 251.682)" id="text_15"><use xlink:href="#Consolas-34"/><use x="54.98" xlink:href="#Consolas-30"/></g></g><g id="ytick_6"><use x="46.058" xlink:href="#m92eb66162b" y="159.407" stroke="#000" stroke-width=".8" id="line2d_15"/><g transform="matrix(.14 0 0 -.14 23.662 164.237)" id="text_16"><use xlink:href="#Consolas-35"/><use x="54.98" xlink:href="#Consolas-30"/></g></g><g id="ytick_7"><use x="46.058" xlink:href="#m92eb66162b" y="71.963" stroke="#000" stroke-width=".8" id="line2d_16"/><g transform="matrix(.14 0 0 -.14 23.662 76.793)" id="text_17"><use xlink:href="#Consolas-36"/><use x="54.98" xlink:href="#Consolas-30"/></g></g><g id="text_18"><defs><path d="M48.578 2.39Q40.922-.78 32.516-.78 19-.781 11.75 7.297 4.5 15.375 4.5 31.203q0 7.672 2 13.86 2 6.203 5.703 10.515 3.719 4.328 8.985 6.672 5.28 2.344 11.828 2.344 4.437 0 8.234-.75 3.813-.75 7.328-2.313v-8.547q-3.453 1.907-7.172 2.907-3.703 1-8.11 1-4.483 0-8.124-1.688-3.64-1.687-6.188-4.89-2.53-3.188-3.906-7.813-1.36-4.61-1.36-10.516 0-12.406 5.032-18.703 5.031-6.297 14.75-6.297 4.094 0 7.86.954 3.765.953 7.218 2.656z" id="Consolas-43"/><path d="M50.484 24.906q0-5.718-1.609-10.484-1.61-4.75-4.64-8.156Q41.218 2.875 36.858 1 32.516-.875 27-.875q-5.266 0-9.453 1.625-4.172 1.64-7.078 4.813-2.906 3.171-4.438 7.859Q4.5 18.109 4.5 24.219q0 5.718 1.61 10.422 1.609 4.718 4.624 8.109 3.032 3.39 7.375 5.266 4.36 1.89 9.875 1.89 5.266 0 9.438-1.64 4.187-1.641 7.078-4.797 2.906-3.14 4.438-7.828 1.546-4.688 1.546-10.735zm-8.687-.39q0 4.53-1 7.922-1 3.406-2.86 5.671-1.859 2.266-4.515 3.407-2.656 1.156-5.938 1.156-3.797 0-6.515-1.484-2.703-1.485-4.438-3.985-1.734-2.484-2.547-5.781-.796-3.297-.796-6.906 0-4.547 1-7.97 1-3.405 2.843-5.687 1.86-2.265 4.5-3.421 2.64-1.141 5.953-1.141 3.813 0 6.516 1.484 2.719 1.5 4.453 3.985 1.734 2.5 2.531 5.78.813 3.298.813 6.97z" id="Consolas-6f"/><path d="M3.219 49.031h9.672L24.906 16.61l2.578-7.922 2.688 8.11L42.094 49.03h9.328L32.172 0h-9.766z" id="Consolas-76"/><path d="M53.219 49.031L46.094 0H35.797l-7.078 20.516-1.422 4.968-1.61-5.265L18.892 0h-10L1.812 49.031h8.297l4.094-33.312.89-7.422 2.095 6.5 7.125 22.015h6.109l7.672-21.718 2.187-6.5.735 6.89 3.812 33.547z" id="Consolas-77"/></defs><g transform="matrix(0 -.14 -.14 0 16.86 407.956)"><use xlink:href="#Consolas-43"/><use x="54.98" xlink:href="#Consolas-6f"/><use x="109.961" xlink:href="#Consolas-6e"/><use x="164.941" xlink:href="#Consolas-63"/><use x="219.922" xlink:href="#Consolas-75"/><use x="274.902" xlink:href="#Consolas-72"/><use x="329.883" xlink:href="#Consolas-72"/><use x="384.863" xlink:href="#Consolas-65"/><use x="439.844" xlink:href="#Consolas-6e"/><use x="494.824" xlink:href="#Consolas-74"/><use x="549.805" xlink:href="#Consolas-20"/><use x="604.785" xlink:href="#Consolas-76"/><use x="659.766" xlink:href="#Consolas-69"/><use x="714.746" xlink:href="#Consolas-65"/><use x="769.727" xlink:href="#Consolas-77"/><use x="824.707" xlink:href="#Consolas-65"/><use x="879.688" xlink:href="#Consolas-72"/><use x="934.668" xlink:href="#Consolas-20"/><use x="989.648" xlink:href="#Consolas-63"/><use x="1044.629" xlink:href="#Consolas-6f"/><use x="1099.609" xlink:href="#Consolas-75"/><use x="1154.59" xlink:href="#Consolas-6e"/><use x="1209.57" xlink:href="#Consolas-74"/></g></g></g><path clip-path="url(#pb68d15f370)" d="M56.265 334.297l10.207 52.467L76.68 360.53l10.207-43.723 10.207-34.978 10.208 34.978 10.207 52.467 10.207-52.467 10.208-8.744 10.207-52.467 10.207-34.978 10.208 8.744 10.207 8.745 10.207-17.49 10.208 8.745h10.207l10.207 43.723 10.208-17.49 10.207-8.744 10.207 43.723 10.207-34.978 10.208-8.745 10.207 34.978 10.207-61.211 10.208 34.978h10.207l10.207-52.467 10.208-17.49 10.207 26.234h20.415l10.207-113.678 10.207 61.211 10.208-8.744 10.207 17.489 10.207-26.233 10.208 104.933 10.207 17.49 10.207-26.234 10.207-8.745h10.208l10.207-8.744 10.207-43.723 10.208 34.978 10.207-43.722 10.207 34.978 10.208 8.744 10.207-8.744 10.207-8.745 10.208 8.745 10.207 8.744 10.207-43.722 10.208 17.489 10.207-8.745 10.207 8.745h10.208l10.207-17.489 10.207-26.233 10.208-78.7 10.207 43.722 10.207 52.466 10.207 78.7 10.208 43.723 10.207 52.467 10.207 52.467 10.208-17.489h20.414l10.208 43.722 10.207 26.234 10.207-17.49 10.208-17.488 10.207-8.745 10.207 34.978 10.208-52.467 10.207 34.978 10.207-69.955 10.208 26.233 10.207 34.978 10.207-17.49 10.207 34.979 10.208 61.211" fill="none" stroke="green" stroke-linecap="square" id="line2d_17"/><path clip-path="url(#pb68d15f370)" d="M648.29 596.631V63.218" fill="none" stroke="red" stroke-linecap="square" id="line2d_18"/><path d="M46.058 596.631v-554.4" fill="none" stroke="#000" stroke-linecap="square" stroke-width=".8" id="patch_3"/><path d="M883.058 596.631v-554.4" fill="none" stroke="#000" stroke-linecap="square" stroke-width=".8" id="patch_4"/><path d="M46.058 596.631h837" fill="none" stroke="#000" stroke-linecap="square" stroke-width=".8" id="patch_5"/><path d="M46.058 42.231h837" fill="none" stroke="#000" stroke-linecap="square" stroke-width=".8" id="patch_6"/><g id="text_19"><defs><path d="M49.61 44.281q0-3.906-1.47-7.734-1.453-3.828-4.53-6.86-3.079-3.03-7.876-4.906-4.78-1.875-11.422-1.875h-7.906V0H7.72v63.813h17.968q4.735 0 9.079-1.047 4.343-1.047 7.64-3.391 3.297-2.344 5.25-6.063 1.953-3.703 1.953-9.03zm-9.032-.39q0 6.156-4.031 9.422-4.031 3.28-11.25 3.28h-8.89V30.329h8.109q7.718 0 11.89 3.36 4.172 3.374 4.172 10.203z" id="Consolas-50"/><path d="M51.906 0H40.234L17.391 26.266V0h-8.5v69h8.5V26.61L39.406 49.03h11.235l-23-22.61z" id="Consolas-6b"/><path d="M27.484 49.906q1.516 0 2.875-.61 1.375-.608 2.407-1.64 1.03-1.031 1.64-2.406.61-1.36.61-2.86 0-1.562-.61-2.906-.61-1.343-1.64-2.375-1.032-1.03-2.407-1.625-1.359-.578-2.875-.578-1.562 0-2.906.578-1.328.594-2.36 1.625-1.03 1.032-1.624 2.375-.578 1.344-.578 2.907 0 1.5.578 2.859.593 1.375 1.625 2.406 1.031 1.032 2.36 1.64 1.343.61 2.905.61zm0-35.797q1.516 0 2.875-.609 1.375-.61 2.407-1.64 1.03-1.016 1.64-2.391.61-1.36.61-2.875 0-1.563-.61-2.907-.61-1.343-1.64-2.374Q31.734.296 30.359-.282 29-.875 27.484-.875q-1.562 0-2.906.594-1.328.578-2.36 1.594-1.03 1.03-1.624 2.375-.578 1.343-.578 2.906 0 1.515.578 2.875.593 1.375 1.625 2.39 1.031 1.032 2.36 1.641 1.343.61 2.905.61z" id="Consolas-3a"/></defs><g transform="matrix(.14 0 0 -.14 658.497 54.474)" fill="red"><use xlink:href="#Consolas-50"/><use x="54.98" xlink:href="#Consolas-65"/><use x="109.961" xlink:href="#Consolas-61"/><use x="164.941" xlink:href="#Consolas-6b"/><use x="219.922" xlink:href="#Consolas-3a"/><use x="274.902" xlink:href="#Consolas-20"/><use x="329.883" xlink:href="#Consolas-36"/><use x="384.863" xlink:href="#Consolas-31"/></g></g><g id="text_20"><defs><path d="M48.094 0H11.375v63.813h8.844V7.422h27.875z" id="Consolas-4c"/><path d="M47.219 0h-8.5v31.297q0 5.672-2.125 8.469-2.125 2.812-6.078 2.812-1.703 0-3.203-.469-1.485-.453-3.094-1.609-1.61-1.14-3.516-3.094-1.906-1.953-4.39-4.89V0h-8.5v69h8.5V49.031l-.297-7.718q2 2.39 3.922 4.015 1.937 1.64 3.859 2.672 1.937 1.031 3.937 1.469 2 .437 4.157.437 7.312 0 11.312-4.468 4.016-4.47 4.016-13.454z" id="Consolas-68"/><path d="M49.703 25.39q0-6.546-1.828-11.437-1.828-4.875-5.063-8.094-3.218-3.218-7.609-4.843-4.39-1.61-9.516-1.61-2.343 0-4.671.25-2.313.25-4.703.828v-20.5h-8.5v69.047h7.562l.547-8.203q3.656 5.016 7.797 7.047 4.156 2.031 9 2.031 4.203 0 7.375-1.765 3.172-1.75 5.312-4.953 2.157-3.204 3.219-7.72 1.078-4.515 1.078-10.077zM41.016 25q0 3.86-.563 7.078-.562 3.219-1.781 5.516-1.219 2.297-3.125 3.593Q33.64 42.484 31 42.484q-1.61 0-3.266-.515-1.656-.516-3.437-1.719-1.781-1.188-3.766-3.172-1.968-1.969-4.218-4.906V8.406q2.343-.984 4.921-1.547 2.594-.562 5.078-.562 6.891 0 10.797 4.656Q41.016 15.625 41.016 25z" id="Consolas-70"/><path d="M51.313 61.078Q44.624 62.5 39.797 62.5q-11.469 0-11.469-12.016v-8.593h21.485v-7.078H28.328V0h-8.656v34.813H3.906v7.078h15.766V50q0 19.578 20.422 19.578 5.078 0 11.218-1.172zM0 49.031z" id="Consolas-66"/><path d="M51.422 49.031L34.719 5.171q-2.594-6.687-5.36-11.515-2.75-4.843-6.03-7.937-3.267-3.11-7.173-4.563-3.906-1.468-8.734-1.468-1.266 0-2.297.046-1.016.047-2.25.141v7.719q1.078-.14 2.344-.266 1.281-.125 2.687-.125 2.344 0 4.375.688 2.031.687 3.828 2.234 1.813 1.531 3.47 3.969Q21.233-3.47 22.796 0L3.219 49.031h9.672L25.297 16.61l2.484-7.625 2.828 7.813L42.094 49.03z" id="Consolas-79"/><path d="M27.094 15.375q1.672 0 3.156-.64 1.484-.626 2.578-1.75 1.11-1.126 1.734-2.61.641-1.484.641-3.203 0-1.656-.64-3.125-.626-1.453-1.735-2.563Q31.734.391 30.25-.234q-1.484-.641-3.156-.641-1.703 0-3.172.64-1.453.626-2.563 1.72-1.093 1.109-1.734 2.562Q19 5.516 19 7.172q0 1.719.625 3.203.64 1.484 1.734 2.61 1.11 1.124 2.563 1.75 1.469.64 3.172.64z" id="Consolas-2e"/><path d="M49.703 25.39q0-6.109-1.687-10.921-1.672-4.797-4.782-8.14-3.093-3.345-7.547-5.141-4.437-1.782-10-1.782-4.343 0-8.89.828-4.547.844-8.985 2.641V69h8.5V50l-.39-9.078q3.656 4.922 7.828 6.953 4.188 2.031 8.969 2.031 4.203 0 7.375-1.765 3.172-1.75 5.312-4.953 2.157-3.204 3.219-7.72 1.078-4.515 1.078-10.077zM41.016 25q0 3.86-.563 7.078-.562 3.219-1.781 5.516-1.219 2.297-3.125 3.593Q33.64 42.484 31 42.484q-1.61 0-3.266-.515-1.656-.516-3.437-1.719-1.781-1.188-3.766-3.172-1.968-1.969-4.218-4.906V8.406q2.484-.984 5.062-1.547 2.594-.562 4.938-.562 2.937 0 5.593.922 2.672.937 4.688 3.11 2.031 2.171 3.218 5.75 1.204 3.593 1.204 8.921z" id="Consolas-62"/><path d="M47.219 69l-33.5-79.5h-8.11L39.11 69z" id="Consolas-2f"/><path d="M49.125 52.875q-3.563 1.906-7.328 2.953-3.766 1.063-8.203 1.063-5.078 0-9.032-1.813-3.953-1.812-6.671-5.11-2.703-3.28-4.141-7.921-1.438-4.64-1.438-10.266 0-5.86 1.172-10.5 1.172-4.625 3.657-7.86 2.484-3.218 6.359-4.937 3.89-1.703 9.313-1.703.921 0 2 .094 1.078.11 2.14.281 1.078.172 2.078.407 1.016.25 1.797.546v20.313H27.781v7.172h21.64V2.984q-2.015-.937-4.233-1.671-2.22-.72-4.547-1.22-2.313-.484-4.61-.718-2.297-.25-4.437-.25-6.547 0-11.797 2.047-5.25 2.047-8.938 6.078-3.687 4.031-5.671 10.031-1.97 6.016-1.97 13.922 0 7.86 2.204 14.078 2.203 6.235 6.172 10.547 3.984 4.328 9.578 6.594 5.594 2.281 12.328 2.281 4.297 0 8.172-.766 3.89-.75 7.453-2.406z" id="Consolas-47"/><path d="M48.688 17.281q0-4.531-1.86-7.953-1.86-3.422-5.187-5.687Q38.328 1.375 33.656.25 29-.875 23.391-.875q-2.547 0-5.063.203-2.5.188-4.828.485-2.313.28-4.375.671-2.047.391-3.703.829v8.406q3.656-1.375 8.219-2.156 4.578-.782 10.39-.782 4.188 0 7.14.657Q34.126 8.108 36 9.39q1.89 1.296 2.734 3.156.86 1.86.86 4.25 0 2.594-1.438 4.422-1.437 1.828-3.781 3.265-2.344 1.438-5.344 2.641-3 1.203-6.125 2.469-3.125 1.265-6.14 2.75-3 1.5-5.344 3.515-2.344 2.032-3.781 4.766-1.438 2.734-1.438 6.5 0 3.266 1.36 6.438 1.375 3.171 4.25 5.64 2.89 2.469 7.406 3.984 4.515 1.516 10.765 1.516 1.61 0 3.485-.156 1.89-.14 3.812-.406t3.797-.61q1.89-.343 3.5-.734v-7.813q-3.75 1.078-7.516 1.625-3.765.563-7.28.563-7.47 0-10.985-2.484Q15.28 52.203 15.28 48q0-2.594 1.438-4.453 1.453-1.844 3.797-3.313 2.343-1.468 5.343-2.672 3-1.187 6.125-2.453 3.125-1.265 6.125-2.78 3-1.517 5.344-3.595 2.344-2.078 3.781-4.859 1.453-2.781 1.453-6.594z" id="Consolas-53"/><path d="M47.516 0h-39.5v6.11l27.672 35.78h-27v7.141h37.218v-6.64L18.703 7.17h28.813z" id="Consolas-7a"/><path d="M46.094 0H9.812v63.813h36.282V56.5H18.5V36.719h26.516V29.39H18.5V7.42h27.594z" id="Consolas-45"/><path d="M5.328 23.484q0 6.25 1.703 11.11 1.703 4.86 4.86 8.203 3.156 3.344 7.562 5.078 4.422 1.734 9.844 1.734 2.344 0 4.61-.297 2.28-.28 4.468-.921V69h8.547V0h-7.61l-.296 9.281q-3.563-5.172-7.72-7.672-4.14-2.484-8.983-2.484-4.204 0-7.407 1.75-3.187 1.766-5.312 4.953-2.125 3.203-3.203 7.688-1.063 4.5-1.063 9.968zm8.688.547q0-8.89 2.609-13.265 2.61-4.375 7.406-4.375 3.219 0 6.797 2.875 3.594 2.89 7.547 8.562v22.75q-2.094.969-4.64 1.484-2.532.516-5.016.516-6.938 0-10.828-4.5-3.875-4.484-3.875-14.047z" id="Consolas-64"/><path d="M22.797-.594q-5.078.735-8.844 3.219-3.75 2.5-6.25 6.578Q5.22 13.281 4 18.813q-1.219 5.546-1.219 12.296 0 8.688 2 15.032 2 6.343 5.438 10.468 3.453 4.141 8.047 6.11 4.593 1.984 9.718 1.984 6.141 0 10.703-2.234 4.579-2.219 7.594-6.39 3.032-4.173 4.516-10.11 1.5-5.922 1.5-13.344 0-7.813-1.672-13.703-1.656-5.89-4.531-10-2.875-4.094-6.782-6.438Q35.407.141 30.907-.594q.735-4.297 3.422-6.906 2.688-2.61 7.563-2.61 2.343 0 4.609.782 2.281.781 4.625 2.64l3.86-6.015q-3.22-2.625-6.641-3.75-3.422-1.125-7.032-1.125-3.906 0-7.187 1.078-3.266 1.063-5.688 3.188-2.406 2.124-3.875 5.328-1.468 3.203-1.765 7.39zm20.469 32.188q0 5.656-.86 10.312-.86 4.672-2.765 8.016-1.891 3.344-4.907 5.203-3 1.86-7.25 1.86-4.093 0-7.047-1.954-2.953-1.953-4.859-5.297-1.906-3.343-2.844-7.812-.921-4.469-.921-9.5 0-5.813.874-10.531.891-4.703 2.766-8.078 1.875-3.36 4.86-5.204 2.984-1.828 7.171-1.828 4.11 0 7.078 1.953 2.985 1.954 4.907 5.329 1.937 3.374 2.86 7.89.937 4.516.937 9.64z" id="Consolas-51"/></defs><g transform="matrix(.168 0 0 -.168 252.098 18.939)"><use xlink:href="#Consolas-4c"/><use x="54.98" xlink:href="#Consolas-69"/><use x="109.961" xlink:href="#Consolas-76"/><use x="164.941" xlink:href="#Consolas-65"/><use x="219.922" xlink:href="#Consolas-20"/><use x="274.902" xlink:href="#Consolas-76"/><use x="329.883" xlink:href="#Consolas-69"/><use x="384.863" xlink:href="#Consolas-65"/><use x="439.844" xlink:href="#Consolas-77"/><use x="494.824" xlink:href="#Consolas-65"/><use x="549.805" xlink:href="#Consolas-72"/><use x="604.785" xlink:href="#Consolas-73"/><use x="659.766" xlink:href="#Consolas-68"/><use x="714.746" xlink:href="#Consolas-69"/><use x="769.727" xlink:href="#Consolas-70"/><use x="824.707" xlink:href="#Consolas-20"/><use x="879.688" xlink:href="#Consolas-63"/><use x="934.668" xlink:href="#Consolas-75"/><use x="989.648" xlink:href="#Consolas-72"/><use x="1044.629" xlink:href="#Consolas-76"/><use x="1099.609" xlink:href="#Consolas-65"/><use x="1154.59" xlink:href="#Consolas-20"/><use x="1209.57" xlink:href="#Consolas-66"/><use x="1264.551" xlink:href="#Consolas-6f"/><use x="1319.531" xlink:href="#Consolas-72"/><use x="1374.512" xlink:href="#Consolas-20"/><use x="1429.492" xlink:href="#Consolas-79"/><use x="1484.473" xlink:href="#Consolas-6f"/><use x="1539.453" xlink:href="#Consolas-75"/><use x="1594.434" xlink:href="#Consolas-74"/><use x="1649.414" xlink:href="#Consolas-75"/><use x="1704.395" xlink:href="#Consolas-2e"/><use x="1759.375" xlink:href="#Consolas-62"/><use x="1814.355" xlink:href="#Consolas-65"/><use x="1869.336" xlink:href="#Consolas-2f"/><use x="1924.316" xlink:href="#Consolas-63"/><use x="1979.297" xlink:href="#Consolas-30"/><use x="2034.277" xlink:href="#Consolas-47"/><use x="2089.258" xlink:href="#Consolas-53"/><use x="2144.238" xlink:href="#Consolas-7a"/><use x="2199.219" xlink:href="#Consolas-6b"/><use x="2254.199" xlink:href="#Consolas-45"/><use x="2309.18" xlink:href="#Consolas-64"/><use x="2364.16" xlink:href="#Consolas-51"/><use x="2419.141" xlink:href="#Consolas-30"/><use x="2474.121" xlink:href="#Consolas-30"/></g><defs><path d="M42.094 22.61H12.89v8h29.203z" id="Consolas-2d"/><path d="M50.875 22.906H31.687V2.984h-8.39v19.922H4.109v7.422h19.188v19.766h8.39V30.328h19.188z" id="Consolas-2b"/></defs><g transform="matrix(.168 0 0 -.168 312.141 36.262)"><use xlink:href="#Consolas-53"/><use x="54.98" xlink:href="#Consolas-74"/><use x="109.961" xlink:href="#Consolas-61"/><use x="164.941" xlink:href="#Consolas-72"/><use x="219.922" xlink:href="#Consolas-74"/><use x="274.902" xlink:href="#Consolas-20"/><use x="329.883" xlink:href="#Consolas-74"/><use x="384.863" xlink:href="#Consolas-69"/><use x="439.844" xlink:href="#Consolas-6d"/><use x="494.824" xlink:href="#Consolas-65"/><use x="549.805" xlink:href="#Consolas-3a"/><use x="604.785" xlink:href="#Consolas-20"/><use x="659.766" xlink:href="#Consolas-32"/><use x="714.746" xlink:href="#Consolas-30"/><use x="769.727" xlink:href="#Consolas-31"/><use x="824.707" xlink:href="#Consolas-37"/><use x="879.688" xlink:href="#Consolas-2d"/><use x="934.668" xlink:href="#Consolas-31"/><use x="989.648" xlink:href="#Consolas-32"/><use x="1044.629" xlink:href="#Consolas-2d"/><use x="1099.609" xlink:href="#Consolas-31"/><use x="1154.59" xlink:href="#Consolas-35"/><use x="1209.57" xlink:href="#Consolas-54"/><use x="1264.551" xlink:href="#Consolas-31"/><use x="1319.531" xlink:href="#Consolas-37"/><use x="1374.512" xlink:href="#Consolas-3a"/><use x="1429.492" xlink:href="#Consolas-32"/><use x="1484.473" xlink:href="#Consolas-33"/><use x="1539.453" xlink:href="#Consolas-2b"/><use x="1594.434" xlink:href="#Consolas-30"/><use x="1649.414" xlink:href="#Consolas-38"/><use x="1704.395" xlink:href="#Consolas-30"/><use x="1759.375" xlink:href="#Consolas-30"/></g></g></g></g><defs><clipPath id="pb68d15f370"><path d="M46.058 42.231h837v554.4h-837z"/></clipPath></defs></svg>