<?xml version="1.0" encoding="utf-8" standalone="no"?>
<!DOCTYPE svg PUBLIC "-//W3C//DTD SVG 1.1//EN"
  "http://www.w3.org/Graphics/SVG/1.1/DTD/svg11.dtd">
<!-- Created with matplotlib (http://matplotlib.org/) -->
<svg height="640pt" version="1.1" viewBox="0 0 901 640" width="901pt" xmlns="http://www.w3.org/2000/svg" xmlns:xlink="http://www.w3.org/1999/xlink">
 <defs>
  <style type="text/css">
*{stroke-linecap:butt;stroke-linejoin:round;}
  </style>
 </defs>
 <g id="figure_1">
  <g id="patch_1">
   <path d="M 0 640.344263 
L 901.455625 640.344263 
L 901.455625 0 
L 0 0 
z
" style="fill:#ffffff;"/>
  </g>
  <g id="axes_1">
   <g id="patch_2">
    <path d="M 53.755625 596.63145 
L 890.755625 596.63145 
L 890.755625 42.23145 
L 53.755625 42.23145 
z
" style="fill:#ffffff;"/>
   </g>
   <g id="matplotlib.axis_1">
    <g id="xtick_1">
     <g id="line2d_1">
      <defs>
       <path d="M 0 0 
L 0 3.5 
" id="m74e7e2d98c" style="stroke:#000000;stroke-width:0.8;"/>
      </defs>
      <g>
       <use style="stroke:#000000;stroke-width:0.8;" x="53.755625" xlink:href="#m74e7e2d98c" y="596.63145"/>
      </g>
     </g>
     <g id="text_1">
      <!-- 0 -->
      <defs>
       <path d="M 50.6875 31.890625 
Q 50.6875 24.5625 49.21875 18.53125 
Q 47.75 12.5 44.765625 8.171875 
Q 41.796875 3.859375 37.375 1.484375 
Q 32.953125 -0.875 27 -0.875 
Q 21.875 -0.875 17.671875 1.046875 
Q 13.484375 2.984375 10.5 6.984375 
Q 7.515625 10.984375 5.90625 17.1875 
Q 4.296875 23.390625 4.296875 31.890625 
Q 4.296875 39.203125 5.78125 45.25 
Q 7.28125 51.3125 10.234375 55.640625 
Q 13.1875 59.96875 17.625 62.328125 
Q 22.078125 64.703125 27.984375 64.703125 
Q 33.109375 64.703125 37.296875 62.765625 
Q 41.5 60.84375 44.484375 56.8125 
Q 47.46875 52.78125 49.078125 46.578125 
Q 50.6875 40.375 50.6875 31.890625 
z
M 42.09375 31.59375 
Q 42.09375 33.25 41.96875 34.890625 
Q 41.84375 36.53125 41.703125 38.09375 
L 14.703125 18.015625 
Q 15.4375 15.484375 16.546875 13.328125 
Q 17.671875 11.1875 19.25 9.640625 
Q 20.84375 8.109375 22.875 7.25 
Q 24.90625 6.390625 27.484375 6.390625 
Q 30.8125 6.390625 33.515625 8 
Q 36.234375 9.625 38.140625 12.796875 
Q 40.046875 15.96875 41.0625 20.671875 
Q 42.09375 25.390625 42.09375 31.59375 
z
M 12.890625 32.171875 
Q 12.890625 30.671875 12.90625 29.15625 
Q 12.9375 27.640625 13.09375 26.21875 
L 40.09375 46.1875 
Q 39.359375 48.6875 38.234375 50.734375 
Q 37.109375 52.78125 35.546875 54.265625 
Q 33.984375 55.765625 31.984375 56.59375 
Q 29.984375 57.421875 27.484375 57.421875 
Q 24.171875 57.421875 21.453125 55.8125 
Q 18.75 54.203125 16.84375 51 
Q 14.9375 47.796875 13.90625 43.078125 
Q 12.890625 38.375 12.890625 32.171875 
z
" id="Consolas-30"/>
      </defs>
      <g transform="translate(49.906719 613.29145)scale(0.14 -0.14)">
       <use xlink:href="#Consolas-30"/>
      </g>
     </g>
    </g>
    <g id="xtick_2">
     <g id="line2d_2">
      <g>
       <use style="stroke:#000000;stroke-width:0.8;" x="154.842582" xlink:href="#m74e7e2d98c" y="596.63145"/>
      </g>
     </g>
     <g id="text_2">
      <!-- 25 -->
      <defs>
       <path d="M 49.21875 0 
L 7.171875 0 
L 7.171875 7.625 
L 23.6875 24.03125 
Q 27.734375 28.03125 30.265625 30.953125 
Q 32.8125 33.890625 34.21875 36.296875 
Q 35.640625 38.71875 36.125 40.859375 
Q 36.625 43.015625 36.625 45.515625 
Q 36.625 47.859375 35.984375 49.96875 
Q 35.359375 52.09375 34.03125 53.703125 
Q 32.71875 55.328125 30.609375 56.25 
Q 28.515625 57.171875 25.59375 57.171875 
Q 21.53125 57.171875 18.203125 55.359375 
Q 14.890625 53.5625 12.109375 50.6875 
L 7.421875 56.296875 
Q 11.03125 60.109375 15.734375 62.40625 
Q 20.453125 64.703125 26.703125 64.703125 
Q 30.953125 64.703125 34.4375 63.421875 
Q 37.9375 62.15625 40.46875 59.765625 
Q 43.015625 57.375 44.40625 53.90625 
Q 45.796875 50.4375 45.796875 46.09375 
Q 45.796875 42.4375 44.8125 39.3125 
Q 43.84375 36.1875 41.859375 33.078125 
Q 39.890625 29.984375 36.890625 26.65625 
Q 33.890625 23.34375 29.78125 19.390625 
L 18.21875 8.109375 
L 49.21875 8.109375 
z
" id="Consolas-32"/>
       <path d="M 47.609375 20.40625 
Q 47.609375 15.671875 45.546875 11.765625 
Q 43.5 7.859375 39.90625 5.046875 
Q 36.328125 2.25 31.4375 0.6875 
Q 26.5625 -0.875 20.90625 -0.875 
Q 19.484375 -0.875 17.84375 -0.796875 
Q 16.21875 -0.734375 14.59375 -0.609375 
Q 12.984375 -0.484375 11.4375 -0.34375 
Q 9.90625 -0.203125 8.6875 0 
L 8.6875 7.71875 
Q 11.328125 7.078125 14.71875 6.78125 
Q 18.109375 6.5 21.578125 6.5 
Q 25.484375 6.5 28.609375 7.421875 
Q 31.734375 8.34375 33.9375 10.078125 
Q 36.140625 11.8125 37.3125 14.28125 
Q 38.484375 16.75 38.484375 19.828125 
Q 38.484375 25.78125 34.203125 28.484375 
Q 29.9375 31.203125 21.921875 31.203125 
L 9.8125 31.203125 
L 9.8125 63.8125 
L 44.1875 63.8125 
L 44.1875 56.390625 
L 17.828125 56.390625 
L 17.828125 38.484375 
L 23.390625 38.484375 
Q 27.984375 38.484375 32.328125 37.640625 
Q 36.671875 36.8125 40.0625 34.734375 
Q 43.453125 32.671875 45.53125 29.171875 
Q 47.609375 25.6875 47.609375 20.40625 
z
" id="Consolas-35"/>
      </defs>
      <g transform="translate(147.144769 613.29145)scale(0.14 -0.14)">
       <use xlink:href="#Consolas-32"/>
       <use x="54.980469" xlink:href="#Consolas-35"/>
      </g>
     </g>
    </g>
    <g id="xtick_3">
     <g id="line2d_3">
      <g>
       <use style="stroke:#000000;stroke-width:0.8;" x="255.929538" xlink:href="#m74e7e2d98c" y="596.63145"/>
      </g>
     </g>
     <g id="text_3">
      <!-- 50 -->
      <g transform="translate(248.231726 613.29145)scale(0.14 -0.14)">
       <use xlink:href="#Consolas-35"/>
       <use x="54.980469" xlink:href="#Consolas-30"/>
      </g>
     </g>
    </g>
    <g id="xtick_4">
     <g id="line2d_4">
      <g>
       <use style="stroke:#000000;stroke-width:0.8;" x="357.016495" xlink:href="#m74e7e2d98c" y="596.63145"/>
      </g>
     </g>
     <g id="text_4">
      <!-- 75 -->
      <defs>
       <path d="M 48.875 55.90625 
L 22.125 0 
L 12.40625 0 
L 40.1875 55.90625 
L 5.71875 55.90625 
L 5.71875 63.8125 
L 48.875 63.8125 
z
" id="Consolas-37"/>
      </defs>
      <g transform="translate(349.318682 613.29145)scale(0.14 -0.14)">
       <use xlink:href="#Consolas-37"/>
       <use x="54.980469" xlink:href="#Consolas-35"/>
      </g>
     </g>
    </g>
    <g id="xtick_5">
     <g id="line2d_5">
      <g>
       <use style="stroke:#000000;stroke-width:0.8;" x="458.103451" xlink:href="#m74e7e2d98c" y="596.63145"/>
      </g>
     </g>
     <g id="text_5">
      <!-- 100 -->
      <defs>
       <path d="M 48.6875 0 
L 8.59375 0 
L 8.59375 7.90625 
L 25 7.90625 
L 25 54.5 
L 9.71875 46.1875 
L 6.59375 53.421875 
L 26.90625 64.109375 
L 34.421875 64.109375 
L 34.421875 7.90625 
L 48.6875 7.90625 
z
" id="Consolas-31"/>
      </defs>
      <g transform="translate(446.556732 613.29145)scale(0.14 -0.14)">
       <use xlink:href="#Consolas-31"/>
       <use x="54.980469" xlink:href="#Consolas-30"/>
       <use x="109.960938" xlink:href="#Consolas-30"/>
      </g>
     </g>
    </g>
    <g id="xtick_6">
     <g id="line2d_6">
      <g>
       <use style="stroke:#000000;stroke-width:0.8;" x="559.190408" xlink:href="#m74e7e2d98c" y="596.63145"/>
      </g>
     </g>
     <g id="text_6">
      <!-- 125 -->
      <g transform="translate(547.643689 613.29145)scale(0.14 -0.14)">
       <use xlink:href="#Consolas-31"/>
       <use x="54.980469" xlink:href="#Consolas-32"/>
       <use x="109.960938" xlink:href="#Consolas-35"/>
      </g>
     </g>
    </g>
    <g id="xtick_7">
     <g id="line2d_7">
      <g>
       <use style="stroke:#000000;stroke-width:0.8;" x="660.277364" xlink:href="#m74e7e2d98c" y="596.63145"/>
      </g>
     </g>
     <g id="text_7">
      <!-- 150 -->
      <g transform="translate(648.730645 613.29145)scale(0.14 -0.14)">
       <use xlink:href="#Consolas-31"/>
       <use x="54.980469" xlink:href="#Consolas-35"/>
       <use x="109.960938" xlink:href="#Consolas-30"/>
      </g>
     </g>
    </g>
    <g id="xtick_8">
     <g id="line2d_8">
      <g>
       <use style="stroke:#000000;stroke-width:0.8;" x="761.364321" xlink:href="#m74e7e2d98c" y="596.63145"/>
      </g>
     </g>
     <g id="text_8">
      <!-- 175 -->
      <g transform="translate(749.817602 613.29145)scale(0.14 -0.14)">
       <use xlink:href="#Consolas-31"/>
       <use x="54.980469" xlink:href="#Consolas-37"/>
       <use x="109.960938" xlink:href="#Consolas-35"/>
      </g>
     </g>
    </g>
    <g id="xtick_9">
     <g id="line2d_9">
      <g>
       <use style="stroke:#000000;stroke-width:0.8;" x="862.451277" xlink:href="#m74e7e2d98c" y="596.63145"/>
      </g>
     </g>
     <g id="text_9">
      <!-- 200 -->
      <g transform="translate(850.904558 613.29145)scale(0.14 -0.14)">
       <use xlink:href="#Consolas-32"/>
       <use x="54.980469" xlink:href="#Consolas-30"/>
       <use x="109.960938" xlink:href="#Consolas-30"/>
      </g>
     </g>
    </g>
    <g id="text_10">
     <!-- Time since start (minutes) -->
     <defs>
      <path d="M 50.78125 56.390625 
L 31.890625 56.390625 
L 31.890625 0 
L 23.09375 0 
L 23.09375 56.390625 
L 4.203125 56.390625 
L 4.203125 63.8125 
L 50.78125 63.8125 
z
" id="Consolas-54"/>
      <path d="M 24.515625 42 
L 10.015625 42 
L 10.015625 49.03125 
L 33.109375 49.03125 
L 33.109375 7.078125 
L 47.703125 7.078125 
L 47.703125 0 
L 8.40625 0 
L 8.40625 7.078125 
L 24.515625 7.078125 
z
M 27.484375 69.578125 
Q 28.90625 69.578125 30.125 69.0625 
Q 31.34375 68.5625 32.25 67.625 
Q 33.15625 66.703125 33.671875 65.5 
Q 34.1875 64.3125 34.1875 62.890625 
Q 34.1875 61.53125 33.671875 60.296875 
Q 33.15625 59.078125 32.25 58.15625 
Q 31.34375 57.234375 30.125 56.71875 
Q 28.90625 56.203125 27.484375 56.203125 
Q 26.078125 56.203125 24.859375 56.71875 
Q 23.640625 57.234375 22.734375 58.15625 
Q 21.828125 59.078125 21.3125 60.296875 
Q 20.796875 61.53125 20.796875 62.890625 
Q 20.796875 64.3125 21.3125 65.5 
Q 21.828125 66.703125 22.734375 67.625 
Q 23.640625 68.5625 24.859375 69.0625 
Q 26.078125 69.578125 27.484375 69.578125 
z
" id="Consolas-69"/>
      <path d="M 42.78125 0 
L 42.78125 35.203125 
Q 42.78125 37.5 42.609375 38.96875 
Q 42.4375 40.4375 42.0625 41.28125 
Q 41.703125 42.140625 41.140625 42.484375 
Q 40.578125 42.828125 39.75 42.828125 
Q 38.765625 42.828125 37.9375 42.234375 
Q 37.109375 41.65625 36.15625 40.328125 
Q 35.203125 39.015625 34.046875 36.84375 
Q 32.90625 34.671875 31.34375 31.5 
L 31.34375 0 
L 23.578125 0 
L 23.578125 34.28125 
Q 23.578125 36.96875 23.40625 38.625 
Q 23.25 40.28125 22.875 41.203125 
Q 22.515625 42.140625 21.921875 42.484375 
Q 21.34375 42.828125 20.515625 42.828125 
Q 19.625 42.828125 18.84375 42.328125 
Q 18.0625 41.84375 17.109375 40.578125 
Q 16.15625 39.3125 14.984375 37.109375 
Q 13.8125 34.90625 12.203125 31.5 
L 12.203125 0 
L 4.390625 0 
L 4.390625 49.03125 
L 10.890625 49.03125 
L 11.28125 39.703125 
Q 12.546875 42.484375 13.734375 44.4375 
Q 14.9375 46.390625 16.203125 47.578125 
Q 17.484375 48.78125 18.921875 49.34375 
Q 20.359375 49.90625 22.125 49.90625 
Q 26.078125 49.90625 28.125 47.3125 
Q 30.171875 44.734375 30.171875 39.3125 
Q 31.34375 41.84375 32.46875 43.8125 
Q 33.59375 45.796875 34.890625 47.140625 
Q 36.1875 48.484375 37.75 49.1875 
Q 39.3125 49.90625 41.359375 49.90625 
Q 50.59375 49.90625 50.59375 35.6875 
L 50.59375 0 
z
" id="Consolas-6d"/>
      <path d="M 49.21875 27.09375 
Q 49.21875 25.296875 49.171875 24.078125 
Q 49.125 22.859375 49.03125 21.78125 
L 14.59375 21.78125 
Q 14.59375 14.265625 18.796875 10.234375 
Q 23 6.203125 30.90625 6.203125 
Q 33.0625 6.203125 35.203125 6.375 
Q 37.359375 6.546875 39.359375 6.828125 
Q 41.359375 7.125 43.1875 7.484375 
Q 45.015625 7.859375 46.578125 8.296875 
L 46.578125 1.3125 
Q 43.109375 0.34375 38.734375 -0.265625 
Q 34.375 -0.875 29.6875 -0.875 
Q 23.390625 -0.875 18.84375 0.828125 
Q 14.3125 2.546875 11.40625 5.78125 
Q 8.5 9.03125 7.109375 13.734375 
Q 5.71875 18.453125 5.71875 24.421875 
Q 5.71875 29.59375 7.203125 34.203125 
Q 8.6875 38.8125 11.546875 42.296875 
Q 14.40625 45.796875 18.546875 47.84375 
Q 22.703125 49.90625 27.984375 49.90625 
Q 33.109375 49.90625 37.0625 48.296875 
Q 41.015625 46.6875 43.71875 43.71875 
Q 46.4375 40.765625 47.828125 36.546875 
Q 49.21875 32.328125 49.21875 27.09375 
z
M 40.375 28.328125 
Q 40.53125 31.59375 39.75 34.296875 
Q 38.96875 37.015625 37.328125 38.96875 
Q 35.6875 40.921875 33.25 42.015625 
Q 30.8125 43.109375 27.59375 43.109375 
Q 24.8125 43.109375 22.515625 42.03125 
Q 20.21875 40.96875 18.546875 39.015625 
Q 16.890625 37.0625 15.859375 34.328125 
Q 14.84375 31.59375 14.59375 28.328125 
z
" id="Consolas-65"/>
      <path id="Consolas-20"/>
      <path d="M 46.625 13.375 
Q 46.625 10.796875 45.75 8.734375 
Q 44.875 6.6875 43.359375 5.09375 
Q 41.84375 3.515625 39.84375 2.390625 
Q 37.84375 1.265625 35.5625 0.53125 
Q 33.296875 -0.203125 30.90625 -0.53125 
Q 28.515625 -0.875 26.21875 -0.875 
Q 21.234375 -0.875 17.0625 -0.4375 
Q 12.890625 0 8.890625 0.984375 
L 8.890625 8.796875 
Q 13.1875 7.5625 17.4375 6.921875 
Q 21.6875 6.296875 25.875 6.296875 
Q 31.984375 6.296875 34.90625 7.953125 
Q 37.84375 9.625 37.84375 12.703125 
Q 37.84375 14.015625 37.375 15.0625 
Q 36.921875 16.109375 35.6875 17.0625 
Q 34.46875 18.015625 31.90625 19.03125 
Q 29.34375 20.0625 24.90625 21.390625 
Q 21.578125 22.359375 18.765625 23.609375 
Q 15.96875 24.859375 13.90625 26.5625 
Q 11.859375 28.265625 10.6875 30.5625 
Q 9.515625 32.859375 9.515625 35.984375 
Q 9.515625 38.03125 10.46875 40.46875 
Q 11.421875 42.921875 13.71875 45.015625 
Q 16.015625 47.125 19.921875 48.515625 
Q 23.828125 49.90625 29.6875 49.90625 
Q 32.5625 49.90625 36.078125 49.578125 
Q 39.59375 49.265625 43.40625 48.484375 
L 43.40625 40.921875 
Q 39.40625 41.890625 35.8125 42.359375 
Q 32.234375 42.828125 29.59375 42.828125 
Q 26.421875 42.828125 24.25 42.328125 
Q 22.078125 41.84375 20.734375 40.984375 
Q 19.390625 40.140625 18.796875 38.984375 
Q 18.21875 37.84375 18.21875 36.53125 
Q 18.21875 35.203125 18.71875 34.125 
Q 19.234375 33.0625 20.625 32.0625 
Q 22.015625 31.0625 24.5 30.046875 
Q 27 29.046875 31 27.875 
Q 35.359375 26.609375 38.328125 25.21875 
Q 41.3125 23.828125 43.15625 22.109375 
Q 45.015625 20.40625 45.8125 18.25 
Q 46.625 16.109375 46.625 13.375 
z
" id="Consolas-73"/>
      <path d="M 7.8125 49.03125 
L 15.375 49.03125 
L 15.71875 41.109375 
Q 17.875 43.65625 19.875 45.328125 
Q 21.875 47.015625 23.796875 48.046875 
Q 25.734375 49.078125 27.734375 49.484375 
Q 29.734375 49.90625 31.890625 49.90625 
Q 39.453125 49.90625 43.328125 45.4375 
Q 47.21875 40.96875 47.21875 31.984375 
L 47.21875 0 
L 38.71875 0 
L 38.71875 31.296875 
Q 38.71875 37.0625 36.5625 39.8125 
Q 34.421875 42.578125 30.171875 42.578125 
Q 28.609375 42.578125 27.125 42.109375 
Q 25.640625 41.65625 24.015625 40.5 
Q 22.40625 39.359375 20.53125 37.40625 
Q 18.65625 35.453125 16.3125 32.515625 
L 16.3125 0 
L 7.8125 0 
z
" id="Consolas-6e"/>
      <path d="M 45.90625 1.8125 
Q 42.578125 0.53125 39.078125 -0.078125 
Q 35.59375 -0.6875 31.890625 -0.6875 
Q 20.265625 -0.6875 13.984375 5.609375 
Q 7.71875 11.921875 7.71875 24.03125 
Q 7.71875 29.828125 9.515625 34.5625 
Q 11.328125 39.3125 14.59375 42.671875 
Q 17.875 46.046875 22.40625 47.875 
Q 26.953125 49.703125 32.421875 49.703125 
Q 36.234375 49.703125 39.546875 49.171875 
Q 42.875 48.640625 45.90625 47.40625 
L 45.90625 39.3125 
Q 42.71875 40.96875 39.421875 41.71875 
Q 36.140625 42.484375 32.625 42.484375 
Q 29.34375 42.484375 26.4375 41.234375 
Q 23.53125 39.984375 21.328125 37.640625 
Q 19.140625 35.296875 17.875 31.921875 
Q 16.609375 28.5625 16.609375 24.3125 
Q 16.609375 15.4375 20.921875 11.015625 
Q 25.25 6.59375 32.90625 6.59375 
Q 36.375 6.59375 39.625 7.375 
Q 42.875 8.15625 45.90625 9.71875 
z
" id="Consolas-63"/>
      <path d="M 47.3125 0.6875 
Q 44.4375 -0.046875 41.359375 -0.359375 
Q 38.28125 -0.6875 35.109375 -0.6875 
Q 25.875 -0.6875 21.328125 3.484375 
Q 16.796875 7.671875 16.796875 16.3125 
L 16.796875 41.890625 
L 3.078125 41.890625 
L 3.078125 49.03125 
L 16.796875 49.03125 
L 16.796875 62.5 
L 25.296875 64.703125 
L 25.296875 49.03125 
L 47.3125 49.03125 
L 47.3125 41.890625 
L 25.296875 41.890625 
L 25.296875 17 
Q 25.296875 11.71875 28.09375 9.109375 
Q 30.90625 6.5 36.375 6.5 
Q 38.71875 6.5 41.5 6.859375 
Q 44.28125 7.234375 47.3125 8.015625 
z
" id="Consolas-74"/>
      <path d="M 39.3125 0 
L 39.109375 6.59375 
Q 35.109375 2.640625 30.984375 0.875 
Q 26.859375 -0.875 22.3125 -0.875 
Q 18.109375 -0.875 15.125 0.1875 
Q 12.15625 1.265625 10.21875 3.140625 
Q 8.296875 5.03125 7.390625 7.5625 
Q 6.5 10.109375 6.5 13.09375 
Q 6.5 20.453125 11.984375 24.625 
Q 17.484375 28.8125 28.21875 28.8125 
L 38.375 28.8125 
L 38.375 33.109375 
Q 38.375 37.453125 35.59375 40.0625 
Q 32.8125 42.671875 27.09375 42.671875 
Q 22.953125 42.671875 18.921875 41.75 
Q 14.890625 40.828125 10.59375 39.109375 
L 10.59375 46.78125 
Q 12.203125 47.359375 14.171875 47.921875 
Q 16.15625 48.484375 18.359375 48.921875 
Q 20.5625 49.359375 22.953125 49.625 
Q 25.34375 49.90625 27.78125 49.90625 
Q 32.234375 49.90625 35.796875 48.921875 
Q 39.359375 47.953125 41.8125 45.953125 
Q 44.28125 43.953125 45.59375 40.921875 
Q 46.921875 37.890625 46.921875 33.796875 
L 46.921875 0 
z
M 38.375 22.3125 
L 27.59375 22.3125 
Q 24.421875 22.3125 22.125 21.671875 
Q 19.828125 21.046875 18.359375 19.875 
Q 16.890625 18.703125 16.1875 17.0625 
Q 15.484375 15.4375 15.484375 13.375 
Q 15.484375 11.96875 15.921875 10.671875 
Q 16.359375 9.375 17.328125 8.375 
Q 18.3125 7.375 19.875 6.78125 
Q 21.4375 6.203125 23.6875 6.203125 
Q 26.609375 6.203125 30.390625 7.984375 
Q 34.1875 9.765625 38.375 13.625 
z
" id="Consolas-61"/>
      <path d="M 9.8125 49.03125 
L 17.578125 49.03125 
L 17.828125 39.984375 
Q 22.171875 45.21875 26.390625 47.5625 
Q 30.609375 49.90625 34.90625 49.90625 
Q 42.53125 49.90625 46.453125 44.96875 
Q 50.390625 40.046875 50.09375 30.328125 
L 41.5 30.328125 
Q 41.65625 36.765625 39.625 39.671875 
Q 37.59375 42.578125 33.6875 42.578125 
Q 31.984375 42.578125 30.25 41.96875 
Q 28.515625 41.359375 26.6875 40.015625 
Q 24.859375 38.671875 22.796875 36.5625 
Q 20.75 34.46875 18.40625 31.5 
L 18.40625 0 
L 9.8125 0 
z
" id="Consolas-72"/>
      <path d="M 37.15625 -20.515625 
Q 14.65625 0.34375 14.65625 25.59375 
Q 14.65625 31.5 15.84375 37.375 
Q 17.046875 43.265625 19.703125 49.171875 
Q 22.359375 55.078125 26.734375 60.984375 
Q 31.109375 66.890625 37.359375 72.703125 
L 42.28125 67.671875 
Q 23.34375 48.96875 23.34375 26.21875 
Q 23.34375 14.890625 28.125 4.4375 
Q 32.90625 -6 42.28125 -15.28125 
z
" id="Consolas-28"/>
      <path d="M 47.21875 0 
L 39.59375 0 
L 39.3125 7.90625 
Q 37.109375 5.375 35.125 3.6875 
Q 33.15625 2 31.203125 0.96875 
Q 29.25 -0.046875 27.265625 -0.453125 
Q 25.296875 -0.875 23.09375 -0.875 
Q 15.53125 -0.875 11.671875 3.5625 
Q 7.8125 8.015625 7.8125 17 
L 7.8125 49.03125 
L 16.3125 49.03125 
L 16.3125 17.671875 
Q 16.3125 6.390625 24.8125 6.390625 
Q 26.375 6.390625 27.859375 6.859375 
Q 29.34375 7.328125 30.984375 8.46875 
Q 32.625 9.625 34.5 11.578125 
Q 36.375 13.53125 38.71875 16.5 
L 38.71875 49.03125 
L 47.21875 49.03125 
z
" id="Consolas-75"/>
      <path d="M 17.828125 72.703125 
Q 40.328125 51.859375 40.328125 26.3125 
Q 40.328125 21.046875 39.25 15.375 
Q 38.1875 9.71875 35.59375 3.78125 
Q 33.015625 -2.15625 28.640625 -8.25 
Q 24.265625 -14.359375 17.625 -20.515625 
L 12.703125 -15.484375 
Q 22.21875 -6.0625 26.90625 4.1875 
Q 31.59375 14.453125 31.59375 25.6875 
Q 31.59375 48.921875 12.703125 67.484375 
z
" id="Consolas-29"/>
     </defs>
     <g transform="translate(372.184062 630.272075)scale(0.14 -0.14)">
      <use xlink:href="#Consolas-54"/>
      <use x="54.980469" xlink:href="#Consolas-69"/>
      <use x="109.960938" xlink:href="#Consolas-6d"/>
      <use x="164.941406" xlink:href="#Consolas-65"/>
      <use x="219.921875" xlink:href="#Consolas-20"/>
      <use x="274.902344" xlink:href="#Consolas-73"/>
      <use x="329.882812" xlink:href="#Consolas-69"/>
      <use x="384.863281" xlink:href="#Consolas-6e"/>
      <use x="439.84375" xlink:href="#Consolas-63"/>
      <use x="494.824219" xlink:href="#Consolas-65"/>
      <use x="549.804688" xlink:href="#Consolas-20"/>
      <use x="604.785156" xlink:href="#Consolas-73"/>
      <use x="659.765625" xlink:href="#Consolas-74"/>
      <use x="714.746094" xlink:href="#Consolas-61"/>
      <use x="769.726562" xlink:href="#Consolas-72"/>
      <use x="824.707031" xlink:href="#Consolas-74"/>
      <use x="879.6875" xlink:href="#Consolas-20"/>
      <use x="934.667969" xlink:href="#Consolas-28"/>
      <use x="989.648438" xlink:href="#Consolas-6d"/>
      <use x="1044.628906" xlink:href="#Consolas-69"/>
      <use x="1099.609375" xlink:href="#Consolas-6e"/>
      <use x="1154.589844" xlink:href="#Consolas-75"/>
      <use x="1209.570312" xlink:href="#Consolas-74"/>
      <use x="1264.550781" xlink:href="#Consolas-65"/>
      <use x="1319.53125" xlink:href="#Consolas-73"/>
      <use x="1374.511719" xlink:href="#Consolas-29"/>
     </g>
    </g>
   </g>
   <g id="matplotlib.axis_2">
    <g id="ytick_1">
     <g id="line2d_10">
      <defs>
       <path d="M 0 0 
L -3.5 0 
" id="m33210e7731" style="stroke:#000000;stroke-width:0.8;"/>
      </defs>
      <g>
       <use style="stroke:#000000;stroke-width:0.8;" x="53.755625" xlink:href="#m33210e7731" y="596.63145"/>
      </g>
     </g>
     <g id="text_11">
      <!-- 0 -->
      <g transform="translate(39.057813 601.46145)scale(0.14 -0.14)">
       <use xlink:href="#Consolas-30"/>
      </g>
     </g>
    </g>
    <g id="ytick_2">
     <g id="line2d_11">
      <g>
       <use style="stroke:#000000;stroke-width:0.8;" x="53.755625" xlink:href="#m33210e7731" y="495.111582"/>
      </g>
     </g>
     <g id="text_12">
      <!-- 50 -->
      <g transform="translate(31.36 499.941582)scale(0.14 -0.14)">
       <use xlink:href="#Consolas-35"/>
       <use x="54.980469" xlink:href="#Consolas-30"/>
      </g>
     </g>
    </g>
    <g id="ytick_3">
     <g id="line2d_12">
      <g>
       <use style="stroke:#000000;stroke-width:0.8;" x="53.755625" xlink:href="#m33210e7731" y="393.591714"/>
      </g>
     </g>
     <g id="text_13">
      <!-- 100 -->
      <g transform="translate(23.662188 398.421714)scale(0.14 -0.14)">
       <use xlink:href="#Consolas-31"/>
       <use x="54.980469" xlink:href="#Consolas-30"/>
       <use x="109.960938" xlink:href="#Consolas-30"/>
      </g>
     </g>
    </g>
    <g id="ytick_4">
     <g id="line2d_13">
      <g>
       <use style="stroke:#000000;stroke-width:0.8;" x="53.755625" xlink:href="#m33210e7731" y="292.071846"/>
      </g>
     </g>
     <g id="text_14">
      <!-- 150 -->
      <g transform="translate(23.662188 296.901846)scale(0.14 -0.14)">
       <use xlink:href="#Consolas-31"/>
       <use x="54.980469" xlink:href="#Consolas-35"/>
       <use x="109.960938" xlink:href="#Consolas-30"/>
      </g>
     </g>
    </g>
    <g id="ytick_5">
     <g id="line2d_14">
      <g>
       <use style="stroke:#000000;stroke-width:0.8;" x="53.755625" xlink:href="#m33210e7731" y="190.551977"/>
      </g>
     </g>
     <g id="text_15">
      <!-- 200 -->
      <g transform="translate(23.662188 195.381977)scale(0.14 -0.14)">
       <use xlink:href="#Consolas-32"/>
       <use x="54.980469" xlink:href="#Consolas-30"/>
       <use x="109.960938" xlink:href="#Consolas-30"/>
      </g>
     </g>
    </g>
    <g id="ytick_6">
     <g id="line2d_15">
      <g>
       <use style="stroke:#000000;stroke-width:0.8;" x="53.755625" xlink:href="#m33210e7731" y="89.032109"/>
      </g>
     </g>
     <g id="text_16">
      <!-- 250 -->
      <g transform="translate(23.662188 93.862109)scale(0.14 -0.14)">
       <use xlink:href="#Consolas-32"/>
       <use x="54.980469" xlink:href="#Consolas-35"/>
       <use x="109.960938" xlink:href="#Consolas-30"/>
      </g>
     </g>
    </g>
    <g id="text_17">
     <!-- Concurrent viewer count -->
     <defs>
      <path d="M 48.578125 2.390625 
Q 40.921875 -0.78125 32.515625 -0.78125 
Q 19 -0.78125 11.75 7.296875 
Q 4.5 15.375 4.5 31.203125 
Q 4.5 38.875 6.5 45.0625 
Q 8.5 51.265625 12.203125 55.578125 
Q 15.921875 59.90625 21.1875 62.25 
Q 26.46875 64.59375 33.015625 64.59375 
Q 37.453125 64.59375 41.25 63.84375 
Q 45.0625 63.09375 48.578125 61.53125 
L 48.578125 52.984375 
Q 45.125 54.890625 41.40625 55.890625 
Q 37.703125 56.890625 33.296875 56.890625 
Q 28.8125 56.890625 25.171875 55.203125 
Q 21.53125 53.515625 18.984375 50.3125 
Q 16.453125 47.125 15.078125 42.5 
Q 13.71875 37.890625 13.71875 31.984375 
Q 13.71875 19.578125 18.75 13.28125 
Q 23.78125 6.984375 33.5 6.984375 
Q 37.59375 6.984375 41.359375 7.9375 
Q 45.125 8.890625 48.578125 10.59375 
z
" id="Consolas-43"/>
      <path d="M 50.484375 24.90625 
Q 50.484375 19.1875 48.875 14.421875 
Q 47.265625 9.671875 44.234375 6.265625 
Q 41.21875 2.875 36.859375 1 
Q 32.515625 -0.875 27 -0.875 
Q 21.734375 -0.875 17.546875 0.75 
Q 13.375 2.390625 10.46875 5.5625 
Q 7.5625 8.734375 6.03125 13.421875 
Q 4.5 18.109375 4.5 24.21875 
Q 4.5 29.9375 6.109375 34.640625 
Q 7.71875 39.359375 10.734375 42.75 
Q 13.765625 46.140625 18.109375 48.015625 
Q 22.46875 49.90625 27.984375 49.90625 
Q 33.25 49.90625 37.421875 48.265625 
Q 41.609375 46.625 44.5 43.46875 
Q 47.40625 40.328125 48.9375 35.640625 
Q 50.484375 30.953125 50.484375 24.90625 
z
M 41.796875 24.515625 
Q 41.796875 29.046875 40.796875 32.4375 
Q 39.796875 35.84375 37.9375 38.109375 
Q 36.078125 40.375 33.421875 41.515625 
Q 30.765625 42.671875 27.484375 42.671875 
Q 23.6875 42.671875 20.96875 41.1875 
Q 18.265625 39.703125 16.53125 37.203125 
Q 14.796875 34.71875 13.984375 31.421875 
Q 13.1875 28.125 13.1875 24.515625 
Q 13.1875 19.96875 14.1875 16.546875 
Q 15.1875 13.140625 17.03125 10.859375 
Q 18.890625 8.59375 21.53125 7.4375 
Q 24.171875 6.296875 27.484375 6.296875 
Q 31.296875 6.296875 34 7.78125 
Q 36.71875 9.28125 38.453125 11.765625 
Q 40.1875 14.265625 40.984375 17.546875 
Q 41.796875 20.84375 41.796875 24.515625 
z
" id="Consolas-6f"/>
      <path d="M 3.21875 49.03125 
L 12.890625 49.03125 
L 24.90625 16.609375 
L 27.484375 8.6875 
L 30.171875 16.796875 
L 42.09375 49.03125 
L 51.421875 49.03125 
L 32.171875 0 
L 22.40625 0 
z
" id="Consolas-76"/>
      <path d="M 53.21875 49.03125 
L 46.09375 0 
L 35.796875 0 
L 28.71875 20.515625 
L 27.296875 25.484375 
L 25.6875 20.21875 
L 18.890625 0 
L 8.890625 0 
L 1.8125 49.03125 
L 10.109375 49.03125 
L 14.203125 15.71875 
L 15.09375 8.296875 
L 17.1875 14.796875 
L 24.3125 36.8125 
L 30.421875 36.8125 
L 38.09375 15.09375 
L 40.28125 8.59375 
L 41.015625 15.484375 
L 44.828125 49.03125 
z
" id="Consolas-77"/>
     </defs>
     <g transform="translate(16.86 407.956294)rotate(-90)scale(0.14 -0.14)">
      <use xlink:href="#Consolas-43"/>
      <use x="54.980469" xlink:href="#Consolas-6f"/>
      <use x="109.960938" xlink:href="#Consolas-6e"/>
      <use x="164.941406" xlink:href="#Consolas-63"/>
      <use x="219.921875" xlink:href="#Consolas-75"/>
      <use x="274.902344" xlink:href="#Consolas-72"/>
      <use x="329.882812" xlink:href="#Consolas-72"/>
      <use x="384.863281" xlink:href="#Consolas-65"/>
      <use x="439.84375" xlink:href="#Consolas-6e"/>
      <use x="494.824219" xlink:href="#Consolas-74"/>
      <use x="549.804688" xlink:href="#Consolas-20"/>
      <use x="604.785156" xlink:href="#Consolas-76"/>
      <use x="659.765625" xlink:href="#Consolas-69"/>
      <use x="714.746094" xlink:href="#Consolas-65"/>
      <use x="769.726562" xlink:href="#Consolas-77"/>
      <use x="824.707031" xlink:href="#Consolas-65"/>
      <use x="879.6875" xlink:href="#Consolas-72"/>
      <use x="934.667969" xlink:href="#Consolas-20"/>
      <use x="989.648438" xlink:href="#Consolas-63"/>
      <use x="1044.628906" xlink:href="#Consolas-6f"/>
      <use x="1099.609375" xlink:href="#Consolas-75"/>
      <use x="1154.589844" xlink:href="#Consolas-6e"/>
      <use x="1209.570312" xlink:href="#Consolas-74"/>
     </g>
    </g>
   </g>
   <g id="line2d_16">
    <path clip-path="url(#pce1937382b)" d="M 94.190408 513.385158 
L 98.233886 509.324363 
L 102.277364 493.081184 
L 106.320842 466.686019 
L 110.364321 484.959595 
L 114.407799 470.746813 
L 118.451277 468.716416 
L 122.494755 476.838006 
L 126.538234 444.351648 
L 130.581712 419.986879 
L 134.62519 397.652508 
L 138.668668 393.591714 
L 142.712147 373.28774 
L 146.755625 373.28774 
L 150.799103 367.196548 
L 154.842582 355.014164 
L 158.88606 330.649395 
L 162.929538 316.436614 
L 166.973016 316.436614 
L 171.016495 324.558203 
L 175.059973 326.588601 
L 179.103451 292.071846 
L 183.146929 273.798269 
L 187.190408 279.889461 
L 191.233886 245.372706 
L 195.277364 208.825554 
L 199.320842 206.795156 
L 203.364321 200.703964 
L 207.407799 188.52158 
L 211.451277 174.308798 
L 215.494755 170.248004 
L 219.538234 168.217606 
L 223.581712 156.035222 
L 227.62519 149.94403 
L 231.668668 168.217606 
L 235.712147 182.430388 
L 239.755625 186.491183 
L 243.799103 170.248004 
L 247.842582 156.035222 
L 251.88606 160.096017 
L 255.929538 149.94403 
L 259.973016 151.974427 
L 264.016495 143.852838 
L 268.059973 160.096017 
L 272.103451 190.551977 
L 276.146929 184.460785 
L 280.190408 188.52158 
L 284.233886 194.612772 
L 288.277364 192.582375 
L 292.320842 182.430388 
L 296.364321 184.460785 
L 300.407799 182.430388 
L 304.451277 178.369593 
L 308.494755 212.886348 
L 312.538234 186.491183 
L 316.581712 188.52158 
L 320.62519 198.673567 
L 324.668668 204.764759 
L 328.712147 206.795156 
L 332.755625 216.947143 
L 336.799103 198.673567 
L 344.88606 186.491183 
L 348.929538 170.248004 
L 352.973016 178.369593 
L 357.016495 162.126414 
L 361.059973 158.06562 
L 365.103451 158.06562 
L 369.146929 154.004825 
L 373.190408 131.670454 
L 377.233886 135.731249 
L 381.277364 141.822441 
L 385.320842 149.94403 
L 389.364321 129.640056 
L 393.407799 158.06562 
L 397.451277 149.94403 
L 401.494755 156.035222 
L 405.538234 154.004825 
L 409.581712 145.883235 
L 413.62519 147.913633 
L 421.712147 147.913633 
L 425.755625 131.670454 
L 429.799103 143.852838 
L 433.842582 141.822441 
L 437.88606 135.731249 
L 441.929538 133.700851 
L 450.016495 137.761646 
L 458.103451 117.457672 
L 462.146929 127.609659 
L 466.190408 111.36648 
L 470.233886 115.427275 
L 474.277364 84.971314 
L 478.320842 72.78893 
L 482.364321 101.214493 
L 486.407799 74.819328 
L 490.451277 78.880122 
L 494.494755 76.849725 
L 498.538234 72.78893 
L 502.581712 87.001712 
L 506.62519 68.728136 
L 510.668668 70.758533 
L 514.712147 91.062507 
L 518.755625 84.971314 
L 522.799103 64.667341 
L 526.842582 93.092904 
L 530.88606 101.214493 
L 534.929538 113.396878 
L 538.973016 87.001712 
L 543.016495 72.78893 
L 547.059973 97.153699 
L 551.103451 101.214493 
L 555.146929 87.001712 
L 559.190408 95.123301 
L 563.233886 95.123301 
L 567.277364 107.305685 
L 571.320842 87.001712 
L 575.364321 95.123301 
L 579.407799 93.092904 
L 583.451277 72.78893 
L 587.494755 84.971314 
L 591.538234 76.849725 
L 595.581712 84.971314 
L 599.62519 89.032109 
L 603.668668 99.184096 
L 611.755625 135.731249 
L 615.799103 125.579262 
L 619.842582 121.518467 
L 623.88606 127.609659 
L 627.929538 119.48807 
L 631.973016 109.336083 
L 636.016495 127.609659 
L 640.059973 125.579262 
L 644.103451 145.883235 
L 648.146929 145.883235 
L 652.190408 135.731249 
L 656.233886 137.761646 
L 660.277364 127.609659 
L 664.320842 123.548864 
L 668.364321 141.822441 
L 672.407799 127.609659 
L 676.451277 123.548864 
L 680.494755 133.700851 
L 684.538234 154.004825 
L 688.581712 143.852838 
L 692.62519 149.94403 
L 696.668668 145.883235 
L 700.712147 125.579262 
L 704.755625 107.305685 
L 708.799103 113.396878 
L 712.842582 125.579262 
L 716.88606 109.336083 
L 720.929538 125.579262 
L 724.973016 125.579262 
L 733.059973 105.275288 
L 741.146929 121.518467 
L 745.190408 115.427275 
L 749.233886 117.457672 
L 753.277364 127.609659 
L 757.320842 125.579262 
L 761.364321 121.518467 
L 765.407799 121.518467 
L 769.451277 129.640056 
L 773.494755 145.883235 
L 777.538234 141.822441 
L 781.581712 172.278401 
L 785.62519 188.52158 
L 789.668668 194.612772 
L 793.712147 212.886348 
L 797.755625 216.947143 
L 801.799103 233.190322 
L 805.842582 225.068733 
L 809.88606 231.159925 
L 813.929538 227.09913 
L 817.973016 212.886348 
L 822.016495 208.825554 
L 826.059973 208.825554 
L 830.103451 204.764759 
L 834.146929 214.916746 
L 838.190408 216.947143 
L 842.233886 210.855951 
L 846.277364 227.09913 
L 850.320842 216.947143 
L 854.364321 212.886348 
L 858.407799 198.673567 
L 862.451277 227.09913 
L 866.494755 200.703964 
L 870.538234 204.764759 
L 874.581712 216.947143 
L 878.62519 249.433501 
L 882.668668 273.798269 
L 886.712147 442.32125 
L 890.755625 507.293966 
L 890.755625 507.293966 
" style="fill:none;stroke:#008000;stroke-linecap:square;"/>
   </g>
   <g id="line2d_17">
    <path clip-path="url(#pce1937382b)" d="M 522.799103 596.63145 
L 522.799103 64.667341 
" style="fill:none;stroke:#ff0000;stroke-linecap:square;"/>
   </g>
   <g id="patch_3">
    <path d="M 53.755625 596.63145 
L 53.755625 42.23145 
" style="fill:none;stroke:#000000;stroke-linecap:square;stroke-linejoin:miter;stroke-width:0.8;"/>
   </g>
   <g id="patch_4">
    <path d="M 890.755625 596.63145 
L 890.755625 42.23145 
" style="fill:none;stroke:#000000;stroke-linecap:square;stroke-linejoin:miter;stroke-width:0.8;"/>
   </g>
   <g id="patch_5">
    <path d="M 53.755625 596.63145 
L 890.755625 596.63145 
" style="fill:none;stroke:#000000;stroke-linecap:square;stroke-linejoin:miter;stroke-width:0.8;"/>
   </g>
   <g id="patch_6">
    <path d="M 53.755625 42.23145 
L 890.755625 42.23145 
" style="fill:none;stroke:#000000;stroke-linecap:square;stroke-linejoin:miter;stroke-width:0.8;"/>
   </g>
   <g id="text_18">
    <!-- Peak: 262 -->
    <defs>
     <path d="M 49.609375 44.28125 
Q 49.609375 40.375 48.140625 36.546875 
Q 46.6875 32.71875 43.609375 29.6875 
Q 40.53125 26.65625 35.734375 24.78125 
Q 30.953125 22.90625 24.3125 22.90625 
L 16.40625 22.90625 
L 16.40625 0 
L 7.71875 0 
L 7.71875 63.8125 
L 25.6875 63.8125 
Q 30.421875 63.8125 34.765625 62.765625 
Q 39.109375 61.71875 42.40625 59.375 
Q 45.703125 57.03125 47.65625 53.3125 
Q 49.609375 49.609375 49.609375 44.28125 
z
M 40.578125 43.890625 
Q 40.578125 50.046875 36.546875 53.3125 
Q 32.515625 56.59375 25.296875 56.59375 
L 16.40625 56.59375 
L 16.40625 30.328125 
L 24.515625 30.328125 
Q 32.234375 30.328125 36.40625 33.6875 
Q 40.578125 37.0625 40.578125 43.890625 
z
" id="Consolas-50"/>
     <path d="M 51.90625 0 
L 40.234375 0 
L 17.390625 26.265625 
L 17.390625 0 
L 8.890625 0 
L 8.890625 69 
L 17.390625 69 
L 17.390625 26.609375 
L 39.40625 49.03125 
L 50.640625 49.03125 
L 27.640625 26.421875 
z
" id="Consolas-6b"/>
     <path d="M 27.484375 49.90625 
Q 29 49.90625 30.359375 49.296875 
Q 31.734375 48.6875 32.765625 47.65625 
Q 33.796875 46.625 34.40625 45.25 
Q 35.015625 43.890625 35.015625 42.390625 
Q 35.015625 40.828125 34.40625 39.484375 
Q 33.796875 38.140625 32.765625 37.109375 
Q 31.734375 36.078125 30.359375 35.484375 
Q 29 34.90625 27.484375 34.90625 
Q 25.921875 34.90625 24.578125 35.484375 
Q 23.25 36.078125 22.21875 37.109375 
Q 21.1875 38.140625 20.59375 39.484375 
Q 20.015625 40.828125 20.015625 42.390625 
Q 20.015625 43.890625 20.59375 45.25 
Q 21.1875 46.625 22.21875 47.65625 
Q 23.25 48.6875 24.578125 49.296875 
Q 25.921875 49.90625 27.484375 49.90625 
z
M 27.484375 14.109375 
Q 29 14.109375 30.359375 13.5 
Q 31.734375 12.890625 32.765625 11.859375 
Q 33.796875 10.84375 34.40625 9.46875 
Q 35.015625 8.109375 35.015625 6.59375 
Q 35.015625 5.03125 34.40625 3.6875 
Q 33.796875 2.34375 32.765625 1.3125 
Q 31.734375 0.296875 30.359375 -0.28125 
Q 29 -0.875 27.484375 -0.875 
Q 25.921875 -0.875 24.578125 -0.28125 
Q 23.25 0.296875 22.21875 1.3125 
Q 21.1875 2.34375 20.59375 3.6875 
Q 20.015625 5.03125 20.015625 6.59375 
Q 20.015625 8.109375 20.59375 9.46875 
Q 21.1875 10.84375 22.21875 11.859375 
Q 23.25 12.890625 24.578125 13.5 
Q 25.921875 14.109375 27.484375 14.109375 
z
" id="Consolas-3a"/>
     <path d="M 50 20.21875 
Q 50 15.828125 48.40625 11.96875 
Q 46.828125 8.109375 43.890625 5.25 
Q 40.96875 2.390625 36.84375 0.75 
Q 32.71875 -0.875 27.6875 -0.875 
Q 22.40625 -0.875 18.359375 0.796875 
Q 14.3125 2.484375 11.578125 5.96875 
Q 8.84375 9.46875 7.421875 14.796875 
Q 6 20.125 6 27.390625 
Q 6 32.28125 6.640625 36.859375 
Q 7.28125 41.453125 8.734375 45.5 
Q 10.203125 49.5625 12.640625 52.921875 
Q 15.09375 56.296875 18.71875 58.71875 
Q 22.359375 61.140625 27.296875 62.46875 
Q 32.234375 63.8125 38.71875 63.8125 
L 45.015625 63.8125 
L 45.015625 56.390625 
L 38.1875 56.390625 
Q 32.46875 56.390625 28.265625 55.015625 
Q 24.078125 53.65625 21.234375 51.171875 
Q 18.40625 48.6875 16.890625 45.171875 
Q 15.375 41.65625 14.984375 37.3125 
L 14.796875 35.296875 
Q 17.875 37.109375 21.890625 38.203125 
Q 25.921875 39.3125 30.609375 39.3125 
Q 35.453125 39.3125 39.078125 37.890625 
Q 42.71875 36.46875 45.140625 33.953125 
Q 47.5625 31.453125 48.78125 27.9375 
Q 50 24.421875 50 20.21875 
z
M 41.109375 19.671875 
Q 41.109375 22.609375 40.40625 24.96875 
Q 39.703125 27.34375 38.1875 28.96875 
Q 36.671875 30.609375 34.34375 31.515625 
Q 32.03125 32.421875 28.8125 32.421875 
Q 26.953125 32.421875 25.046875 32.078125 
Q 23.140625 31.734375 21.3125 31.125 
Q 19.484375 30.515625 17.8125 29.734375 
Q 16.15625 28.953125 14.796875 28.078125 
Q 14.796875 21.78125 15.671875 17.546875 
Q 16.546875 13.328125 18.28125 10.78125 
Q 20.015625 8.25 22.546875 7.171875 
Q 25.09375 6.109375 28.421875 6.109375 
Q 31.203125 6.109375 33.515625 7 
Q 35.84375 7.90625 37.515625 9.65625 
Q 39.203125 11.421875 40.15625 13.9375 
Q 41.109375 16.453125 41.109375 19.671875 
z
" id="Consolas-36"/>
    </defs>
    <g style="fill:#ff0000;" transform="translate(526.842582 62.636943)scale(0.14 -0.14)">
     <use xlink:href="#Consolas-50"/>
     <use x="54.980469" xlink:href="#Consolas-65"/>
     <use x="109.960938" xlink:href="#Consolas-61"/>
     <use x="164.941406" xlink:href="#Consolas-6b"/>
     <use x="219.921875" xlink:href="#Consolas-3a"/>
     <use x="274.902344" xlink:href="#Consolas-20"/>
     <use x="329.882812" xlink:href="#Consolas-32"/>
     <use x="384.863281" xlink:href="#Consolas-36"/>
     <use x="439.84375" xlink:href="#Consolas-32"/>
    </g>
   </g>
   <g id="text_19">
    <!-- Live viewership curve for youtu.be/zQx2nd0_ul0 -->
    <defs>
     <path d="M 48.09375 0 
L 11.375 0 
L 11.375 63.8125 
L 20.21875 63.8125 
L 20.21875 7.421875 
L 48.09375 7.421875 
z
" id="Consolas-4c"/>
     <path d="M 47.21875 0 
L 38.71875 0 
L 38.71875 31.296875 
Q 38.71875 36.96875 36.59375 39.765625 
Q 34.46875 42.578125 30.515625 42.578125 
Q 28.8125 42.578125 27.3125 42.109375 
Q 25.828125 41.65625 24.21875 40.5 
Q 22.609375 39.359375 20.703125 37.40625 
Q 18.796875 35.453125 16.3125 32.515625 
L 16.3125 0 
L 7.8125 0 
L 7.8125 69 
L 16.3125 69 
L 16.3125 49.03125 
L 16.015625 41.3125 
Q 18.015625 43.703125 19.9375 45.328125 
Q 21.875 46.96875 23.796875 48 
Q 25.734375 49.03125 27.734375 49.46875 
Q 29.734375 49.90625 31.890625 49.90625 
Q 39.203125 49.90625 43.203125 45.4375 
Q 47.21875 40.96875 47.21875 31.984375 
z
" id="Consolas-68"/>
     <path d="M 49.703125 25.390625 
Q 49.703125 18.84375 47.875 13.953125 
Q 46.046875 9.078125 42.8125 5.859375 
Q 39.59375 2.640625 35.203125 1.015625 
Q 30.8125 -0.59375 25.6875 -0.59375 
Q 23.34375 -0.59375 21.015625 -0.34375 
Q 18.703125 -0.09375 16.3125 0.484375 
L 16.3125 -20.015625 
L 7.8125 -20.015625 
L 7.8125 49.03125 
L 15.375 49.03125 
L 15.921875 40.828125 
Q 19.578125 45.84375 23.71875 47.875 
Q 27.875 49.90625 32.71875 49.90625 
Q 36.921875 49.90625 40.09375 48.140625 
Q 43.265625 46.390625 45.40625 43.1875 
Q 47.5625 39.984375 48.625 35.46875 
Q 49.703125 30.953125 49.703125 25.390625 
z
M 41.015625 25 
Q 41.015625 28.859375 40.453125 32.078125 
Q 39.890625 35.296875 38.671875 37.59375 
Q 37.453125 39.890625 35.546875 41.1875 
Q 33.640625 42.484375 31 42.484375 
Q 29.390625 42.484375 27.734375 41.96875 
Q 26.078125 41.453125 24.296875 40.25 
Q 22.515625 39.0625 20.53125 37.078125 
Q 18.5625 35.109375 16.3125 32.171875 
L 16.3125 8.40625 
Q 18.65625 7.421875 21.234375 6.859375 
Q 23.828125 6.296875 26.3125 6.296875 
Q 33.203125 6.296875 37.109375 10.953125 
Q 41.015625 15.625 41.015625 25 
z
" id="Consolas-70"/>
     <path d="M 51.3125 61.078125 
Q 44.625 62.5 39.796875 62.5 
Q 28.328125 62.5 28.328125 50.484375 
L 28.328125 41.890625 
L 49.8125 41.890625 
L 49.8125 34.8125 
L 28.328125 34.8125 
L 28.328125 0 
L 19.671875 0 
L 19.671875 34.8125 
L 3.90625 34.8125 
L 3.90625 41.890625 
L 19.671875 41.890625 
L 19.671875 50 
Q 19.671875 69.578125 40.09375 69.578125 
Q 45.171875 69.578125 51.3125 68.40625 
z
M 0 49.03125 
z
" id="Consolas-66"/>
     <path d="M 51.421875 49.03125 
L 34.71875 5.171875 
Q 32.125 -1.515625 29.359375 -6.34375 
Q 26.609375 -11.1875 23.328125 -14.28125 
Q 20.0625 -17.390625 16.15625 -18.84375 
Q 12.25 -20.3125 7.421875 -20.3125 
Q 6.15625 -20.3125 5.125 -20.265625 
Q 4.109375 -20.21875 2.875 -20.125 
L 2.875 -12.40625 
Q 3.953125 -12.546875 5.21875 -12.671875 
Q 6.5 -12.796875 7.90625 -12.796875 
Q 10.25 -12.796875 12.28125 -12.109375 
Q 14.3125 -11.421875 16.109375 -9.875 
Q 17.921875 -8.34375 19.578125 -5.90625 
Q 21.234375 -3.46875 22.796875 0 
L 3.21875 49.03125 
L 12.890625 49.03125 
L 25.296875 16.609375 
L 27.78125 8.984375 
L 30.609375 16.796875 
L 42.09375 49.03125 
z
" id="Consolas-79"/>
     <path d="M 27.09375 15.375 
Q 28.765625 15.375 30.25 14.734375 
Q 31.734375 14.109375 32.828125 12.984375 
Q 33.9375 11.859375 34.5625 10.375 
Q 35.203125 8.890625 35.203125 7.171875 
Q 35.203125 5.515625 34.5625 4.046875 
Q 33.9375 2.59375 32.828125 1.484375 
Q 31.734375 0.390625 30.25 -0.234375 
Q 28.765625 -0.875 27.09375 -0.875 
Q 25.390625 -0.875 23.921875 -0.234375 
Q 22.46875 0.390625 21.359375 1.484375 
Q 20.265625 2.59375 19.625 4.046875 
Q 19 5.515625 19 7.171875 
Q 19 8.890625 19.625 10.375 
Q 20.265625 11.859375 21.359375 12.984375 
Q 22.46875 14.109375 23.921875 14.734375 
Q 25.390625 15.375 27.09375 15.375 
z
" id="Consolas-2e"/>
     <path d="M 49.703125 25.390625 
Q 49.703125 19.28125 48.015625 14.46875 
Q 46.34375 9.671875 43.234375 6.328125 
Q 40.140625 2.984375 35.6875 1.1875 
Q 31.25 -0.59375 25.6875 -0.59375 
Q 21.34375 -0.59375 16.796875 0.234375 
Q 12.25 1.078125 7.8125 2.875 
L 7.8125 69 
L 16.3125 69 
L 16.3125 50 
L 15.921875 40.921875 
Q 19.578125 45.84375 23.75 47.875 
Q 27.9375 49.90625 32.71875 49.90625 
Q 36.921875 49.90625 40.09375 48.140625 
Q 43.265625 46.390625 45.40625 43.1875 
Q 47.5625 39.984375 48.625 35.46875 
Q 49.703125 30.953125 49.703125 25.390625 
z
M 41.015625 25 
Q 41.015625 28.859375 40.453125 32.078125 
Q 39.890625 35.296875 38.671875 37.59375 
Q 37.453125 39.890625 35.546875 41.1875 
Q 33.640625 42.484375 31 42.484375 
Q 29.390625 42.484375 27.734375 41.96875 
Q 26.078125 41.453125 24.296875 40.25 
Q 22.515625 39.0625 20.53125 37.078125 
Q 18.5625 35.109375 16.3125 32.171875 
L 16.3125 8.40625 
Q 18.796875 7.421875 21.375 6.859375 
Q 23.96875 6.296875 26.3125 6.296875 
Q 29.25 6.296875 31.90625 7.21875 
Q 34.578125 8.15625 36.59375 10.328125 
Q 38.625 12.5 39.8125 16.078125 
Q 41.015625 19.671875 41.015625 25 
z
" id="Consolas-62"/>
     <path d="M 47.21875 69 
L 13.71875 -10.5 
L 5.609375 -10.5 
L 39.109375 69 
z
" id="Consolas-2f"/>
     <path d="M 47.515625 0 
L 8.015625 0 
L 8.015625 6.109375 
L 35.6875 41.890625 
L 8.6875 41.890625 
L 8.6875 49.03125 
L 45.90625 49.03125 
L 45.90625 42.390625 
L 18.703125 7.171875 
L 47.515625 7.171875 
z
" id="Consolas-7a"/>
     <path d="M 22.796875 -0.59375 
Q 17.71875 0.140625 13.953125 2.625 
Q 10.203125 5.125 7.703125 9.203125 
Q 5.21875 13.28125 4 18.8125 
Q 2.78125 24.359375 2.78125 31.109375 
Q 2.78125 39.796875 4.78125 46.140625 
Q 6.78125 52.484375 10.21875 56.609375 
Q 13.671875 60.75 18.265625 62.71875 
Q 22.859375 64.703125 27.984375 64.703125 
Q 34.125 64.703125 38.6875 62.46875 
Q 43.265625 60.25 46.28125 56.078125 
Q 49.3125 51.90625 50.796875 45.96875 
Q 52.296875 40.046875 52.296875 32.625 
Q 52.296875 24.8125 50.625 18.921875 
Q 48.96875 13.03125 46.09375 8.921875 
Q 43.21875 4.828125 39.3125 2.484375 
Q 35.40625 0.140625 30.90625 -0.59375 
Q 31.640625 -4.890625 34.328125 -7.5 
Q 37.015625 -10.109375 41.890625 -10.109375 
Q 44.234375 -10.109375 46.5 -9.328125 
Q 48.78125 -8.546875 51.125 -6.6875 
L 54.984375 -12.703125 
Q 51.765625 -15.328125 48.34375 -16.453125 
Q 44.921875 -17.578125 41.3125 -17.578125 
Q 37.40625 -17.578125 34.125 -16.5 
Q 30.859375 -15.4375 28.4375 -13.3125 
Q 26.03125 -11.1875 24.5625 -7.984375 
Q 23.09375 -4.78125 22.796875 -0.59375 
z
M 43.265625 31.59375 
Q 43.265625 37.25 42.40625 41.90625 
Q 41.546875 46.578125 39.640625 49.921875 
Q 37.75 53.265625 34.734375 55.125 
Q 31.734375 56.984375 27.484375 56.984375 
Q 23.390625 56.984375 20.4375 55.03125 
Q 17.484375 53.078125 15.578125 49.734375 
Q 13.671875 46.390625 12.734375 41.921875 
Q 11.8125 37.453125 11.8125 32.421875 
Q 11.8125 26.609375 12.6875 21.890625 
Q 13.578125 17.1875 15.453125 13.8125 
Q 17.328125 10.453125 20.3125 8.609375 
Q 23.296875 6.78125 27.484375 6.78125 
Q 31.59375 6.78125 34.5625 8.734375 
Q 37.546875 10.6875 39.46875 14.0625 
Q 41.40625 17.4375 42.328125 21.953125 
Q 43.265625 26.46875 43.265625 31.59375 
z
" id="Consolas-51"/>
     <path d="M 52 0 
L 40.71875 0 
L 27.484375 18.703125 
L 14.40625 0 
L 3.421875 0 
L 22.40625 24.609375 
L 4.296875 49.03125 
L 15.1875 49.03125 
L 28.078125 30.171875 
L 40.71875 49.03125 
L 51.21875 49.03125 
L 32.8125 24.421875 
z
" id="Consolas-78"/>
     <path d="M 5.328125 23.484375 
Q 5.328125 29.734375 7.03125 34.59375 
Q 8.734375 39.453125 11.890625 42.796875 
Q 15.046875 46.140625 19.453125 47.875 
Q 23.875 49.609375 29.296875 49.609375 
Q 31.640625 49.609375 33.90625 49.3125 
Q 36.1875 49.03125 38.375 48.390625 
L 38.375 69 
L 46.921875 69 
L 46.921875 0 
L 39.3125 0 
L 39.015625 9.28125 
Q 35.453125 4.109375 31.296875 1.609375 
Q 27.15625 -0.875 22.3125 -0.875 
Q 18.109375 -0.875 14.90625 0.875 
Q 11.71875 2.640625 9.59375 5.828125 
Q 7.46875 9.03125 6.390625 13.515625 
Q 5.328125 18.015625 5.328125 23.484375 
z
M 14.015625 24.03125 
Q 14.015625 15.140625 16.625 10.765625 
Q 19.234375 6.390625 24.03125 6.390625 
Q 27.25 6.390625 30.828125 9.265625 
Q 34.421875 12.15625 38.375 17.828125 
L 38.375 40.578125 
Q 36.28125 41.546875 33.734375 42.0625 
Q 31.203125 42.578125 28.71875 42.578125 
Q 21.78125 42.578125 17.890625 38.078125 
Q 14.015625 33.59375 14.015625 24.03125 
z
" id="Consolas-64"/>
     <path d="M 54.984375 -20.015625 
L 0 -20.015625 
L 0 -12.984375 
L 54.984375 -12.984375 
z
" id="Consolas-5f"/>
     <path d="M 24.515625 62.015625 
L 10.015625 62.015625 
L 10.015625 69 
L 33.109375 69 
L 33.109375 7.078125 
L 47.703125 7.078125 
L 47.703125 0 
L 8.40625 0 
L 8.40625 7.078125 
L 24.515625 7.078125 
z
" id="Consolas-6c"/>
    </defs>
    <g transform="translate(259.796 18.939)scale(0.168 -0.168)">
     <use xlink:href="#Consolas-4c"/>
     <use x="54.980469" xlink:href="#Consolas-69"/>
     <use x="109.960938" xlink:href="#Consolas-76"/>
     <use x="164.941406" xlink:href="#Consolas-65"/>
     <use x="219.921875" xlink:href="#Consolas-20"/>
     <use x="274.902344" xlink:href="#Consolas-76"/>
     <use x="329.882812" xlink:href="#Consolas-69"/>
     <use x="384.863281" xlink:href="#Consolas-65"/>
     <use x="439.84375" xlink:href="#Consolas-77"/>
     <use x="494.824219" xlink:href="#Consolas-65"/>
     <use x="549.804688" xlink:href="#Consolas-72"/>
     <use x="604.785156" xlink:href="#Consolas-73"/>
     <use x="659.765625" xlink:href="#Consolas-68"/>
     <use x="714.746094" xlink:href="#Consolas-69"/>
     <use x="769.726562" xlink:href="#Consolas-70"/>
     <use x="824.707031" xlink:href="#Consolas-20"/>
     <use x="879.6875" xlink:href="#Consolas-63"/>
     <use x="934.667969" xlink:href="#Consolas-75"/>
     <use x="989.648438" xlink:href="#Consolas-72"/>
     <use x="1044.628906" xlink:href="#Consolas-76"/>
     <use x="1099.609375" xlink:href="#Consolas-65"/>
     <use x="1154.589844" xlink:href="#Consolas-20"/>
     <use x="1209.570312" xlink:href="#Consolas-66"/>
     <use x="1264.550781" xlink:href="#Consolas-6f"/>
     <use x="1319.53125" xlink:href="#Consolas-72"/>
     <use x="1374.511719" xlink:href="#Consolas-20"/>
     <use x="1429.492188" xlink:href="#Consolas-79"/>
     <use x="1484.472656" xlink:href="#Consolas-6f"/>
     <use x="1539.453125" xlink:href="#Consolas-75"/>
     <use x="1594.433594" xlink:href="#Consolas-74"/>
     <use x="1649.414062" xlink:href="#Consolas-75"/>
     <use x="1704.394531" xlink:href="#Consolas-2e"/>
     <use x="1759.375" xlink:href="#Consolas-62"/>
     <use x="1814.355469" xlink:href="#Consolas-65"/>
     <use x="1869.335938" xlink:href="#Consolas-2f"/>
     <use x="1924.316406" xlink:href="#Consolas-7a"/>
     <use x="1979.296875" xlink:href="#Consolas-51"/>
     <use x="2034.277344" xlink:href="#Consolas-78"/>
     <use x="2089.257812" xlink:href="#Consolas-32"/>
     <use x="2144.238281" xlink:href="#Consolas-6e"/>
     <use x="2199.21875" xlink:href="#Consolas-64"/>
     <use x="2254.199219" xlink:href="#Consolas-30"/>
     <use x="2309.179688" xlink:href="#Consolas-5f"/>
     <use x="2364.160156" xlink:href="#Consolas-75"/>
     <use x="2419.140625" xlink:href="#Consolas-6c"/>
     <use x="2474.121094" xlink:href="#Consolas-30"/>
    </g>
    <!-- Start time: 2017-09-29T19:06+0800 -->
    <defs>
     <path d="M 48.6875 17.28125 
Q 48.6875 12.75 46.828125 9.328125 
Q 44.96875 5.90625 41.640625 3.640625 
Q 38.328125 1.375 33.65625 0.25 
Q 29 -0.875 23.390625 -0.875 
Q 20.84375 -0.875 18.328125 -0.671875 
Q 15.828125 -0.484375 13.5 -0.1875 
Q 11.1875 0.09375 9.125 0.484375 
Q 7.078125 0.875 5.421875 1.3125 
L 5.421875 9.71875 
Q 9.078125 8.34375 13.640625 7.5625 
Q 18.21875 6.78125 24.03125 6.78125 
Q 28.21875 6.78125 31.171875 7.4375 
Q 34.125 8.109375 36 9.390625 
Q 37.890625 10.6875 38.734375 12.546875 
Q 39.59375 14.40625 39.59375 16.796875 
Q 39.59375 19.390625 38.15625 21.21875 
Q 36.71875 23.046875 34.375 24.484375 
Q 32.03125 25.921875 29.03125 27.125 
Q 26.03125 28.328125 22.90625 29.59375 
Q 19.78125 30.859375 16.765625 32.34375 
Q 13.765625 33.84375 11.421875 35.859375 
Q 9.078125 37.890625 7.640625 40.625 
Q 6.203125 43.359375 6.203125 47.125 
Q 6.203125 50.390625 7.5625 53.5625 
Q 8.9375 56.734375 11.8125 59.203125 
Q 14.703125 61.671875 19.21875 63.1875 
Q 23.734375 64.703125 29.984375 64.703125 
Q 31.59375 64.703125 33.46875 64.546875 
Q 35.359375 64.40625 37.28125 64.140625 
Q 39.203125 63.875 41.078125 63.53125 
Q 42.96875 63.1875 44.578125 62.796875 
L 44.578125 54.984375 
Q 40.828125 56.0625 37.0625 56.609375 
Q 33.296875 57.171875 29.78125 57.171875 
Q 22.3125 57.171875 18.796875 54.6875 
Q 15.28125 52.203125 15.28125 48 
Q 15.28125 45.40625 16.71875 43.546875 
Q 18.171875 41.703125 20.515625 40.234375 
Q 22.859375 38.765625 25.859375 37.5625 
Q 28.859375 36.375 31.984375 35.109375 
Q 35.109375 33.84375 38.109375 32.328125 
Q 41.109375 30.8125 43.453125 28.734375 
Q 45.796875 26.65625 47.234375 23.875 
Q 48.6875 21.09375 48.6875 17.28125 
z
" id="Consolas-53"/>
     <path d="M 42.09375 22.609375 
L 12.890625 22.609375 
L 12.890625 30.609375 
L 42.09375 30.609375 
z
" id="Consolas-2d"/>
     <path d="M 48.875 35.5 
Q 48.875 26.171875 46.625 19.453125 
Q 44.390625 12.75 39.984375 8.421875 
Q 35.59375 4.109375 29.09375 2.046875 
Q 22.609375 0 14.109375 0 
L 8.796875 0 
L 8.796875 7.421875 
L 14.703125 7.421875 
Q 21 7.421875 25.578125 8.6875 
Q 30.171875 9.96875 33.21875 12.421875 
Q 36.28125 14.890625 37.890625 18.421875 
Q 39.5 21.96875 39.890625 26.515625 
L 40.09375 28.515625 
Q 37.015625 26.703125 33 25.609375 
Q 29 24.515625 24.3125 24.515625 
Q 19.484375 24.515625 15.8125 25.921875 
Q 12.15625 27.34375 9.734375 29.875 
Q 7.328125 32.421875 6.109375 35.90625 
Q 4.890625 39.40625 4.890625 43.5 
Q 4.890625 47.953125 6.5 51.8125 
Q 8.109375 55.671875 11.015625 58.515625 
Q 13.921875 61.375 17.96875 63.03125 
Q 22.015625 64.703125 26.90625 64.703125 
Q 31.640625 64.703125 35.671875 63.140625 
Q 39.703125 61.578125 42.625 58.078125 
Q 45.5625 54.59375 47.21875 49.015625 
Q 48.875 43.453125 48.875 35.5 
z
M 26.515625 57.71875 
Q 23.78125 57.71875 21.453125 56.8125 
Q 19.140625 55.90625 17.453125 54.171875 
Q 15.765625 52.4375 14.78125 49.890625 
Q 13.8125 47.359375 13.8125 44.09375 
Q 13.8125 41.109375 14.515625 38.765625 
Q 15.234375 36.421875 16.71875 34.78125 
Q 18.21875 33.15625 20.5625 32.265625 
Q 22.90625 31.390625 26.125 31.390625 
Q 27.9375 31.390625 29.859375 31.734375 
Q 31.78125 32.078125 33.609375 32.65625 
Q 35.453125 33.25 37.109375 34.03125 
Q 38.765625 34.8125 40.09375 35.6875 
Q 40.09375 42 39.15625 46.21875 
Q 38.234375 50.4375 36.46875 53 
Q 34.71875 55.5625 32.203125 56.640625 
Q 29.6875 57.71875 26.515625 57.71875 
z
" id="Consolas-39"/>
     <path d="M 50.875 22.90625 
L 31.6875 22.90625 
L 31.6875 2.984375 
L 23.296875 2.984375 
L 23.296875 22.90625 
L 4.109375 22.90625 
L 4.109375 30.328125 
L 23.296875 30.328125 
L 23.296875 50.09375 
L 31.6875 50.09375 
L 31.6875 30.328125 
L 50.875 30.328125 
z
" id="Consolas-2b"/>
     <path d="M 49.21875 16.015625 
Q 49.21875 11.96875 47.5625 8.8125 
Q 45.90625 5.671875 42.921875 3.515625 
Q 39.9375 1.375 35.890625 0.25 
Q 31.84375 -0.875 27.09375 -0.875 
Q 21.875 -0.875 17.890625 0.296875 
Q 13.921875 1.46875 11.234375 3.5625 
Q 8.546875 5.671875 7.171875 8.546875 
Q 5.8125 11.421875 5.8125 14.890625 
Q 5.8125 20.75 9.078125 25 
Q 12.359375 29.25 19.1875 32.71875 
Q 12.9375 35.890625 10.046875 39.765625 
Q 7.171875 43.65625 7.171875 48.6875 
Q 7.171875 51.765625 8.4375 54.640625 
Q 9.71875 57.515625 12.28125 59.765625 
Q 14.84375 62.015625 18.703125 63.359375 
Q 22.5625 64.703125 27.78125 64.703125 
Q 32.71875 64.703125 36.453125 63.640625 
Q 40.1875 62.59375 42.71875 60.640625 
Q 45.265625 58.6875 46.53125 55.90625 
Q 47.796875 53.125 47.796875 49.703125 
Q 47.796875 44.140625 44.703125 40.234375 
Q 41.609375 36.328125 35.890625 33.40625 
Q 38.71875 31.984375 41.15625 30.265625 
Q 43.609375 28.5625 45.40625 26.453125 
Q 47.21875 24.359375 48.21875 21.765625 
Q 49.21875 19.1875 49.21875 16.015625 
z
M 39.109375 49.03125 
Q 39.109375 53.375 36.0625 55.5 
Q 33.015625 57.625 27.484375 57.625 
Q 22.015625 57.625 18.96875 55.515625 
Q 15.921875 53.421875 15.921875 49.21875 
Q 15.921875 47.3125 16.65625 45.703125 
Q 17.390625 44.09375 18.921875 42.671875 
Q 20.453125 41.265625 22.75 39.890625 
Q 25.046875 38.53125 28.21875 37.109375 
Q 33.734375 39.703125 36.421875 42.5 
Q 39.109375 45.3125 39.109375 49.03125 
z
M 39.984375 15.375 
Q 39.984375 17.1875 39.390625 18.890625 
Q 38.8125 20.609375 37.296875 22.265625 
Q 35.796875 23.921875 33.25 25.578125 
Q 30.71875 27.25 26.8125 29 
Q 23.484375 27.390625 21.21875 25.796875 
Q 18.953125 24.21875 17.546875 22.578125 
Q 16.15625 20.953125 15.5625 19.1875 
Q 14.984375 17.4375 14.984375 15.484375 
Q 14.984375 13.28125 15.9375 11.59375 
Q 16.890625 9.90625 18.546875 8.734375 
Q 20.21875 7.5625 22.515625 6.96875 
Q 24.8125 6.390625 27.484375 6.390625 
Q 30.078125 6.390625 32.375 6.921875 
Q 34.671875 7.46875 36.34375 8.5625 
Q 38.03125 9.671875 39 11.34375 
Q 39.984375 13.03125 39.984375 15.375 
z
" id="Consolas-38"/>
    </defs>
    <g transform="translate(319.838937 36.2619)scale(0.168 -0.168)">
     <use xlink:href="#Consolas-53"/>
     <use x="54.980469" xlink:href="#Consolas-74"/>
     <use x="109.960938" xlink:href="#Consolas-61"/>
     <use x="164.941406" xlink:href="#Consolas-72"/>
     <use x="219.921875" xlink:href="#Consolas-74"/>
     <use x="274.902344" xlink:href="#Consolas-20"/>
     <use x="329.882812" xlink:href="#Consolas-74"/>
     <use x="384.863281" xlink:href="#Consolas-69"/>
     <use x="439.84375" xlink:href="#Consolas-6d"/>
     <use x="494.824219" xlink:href="#Consolas-65"/>
     <use x="549.804688" xlink:href="#Consolas-3a"/>
     <use x="604.785156" xlink:href="#Consolas-20"/>
     <use x="659.765625" xlink:href="#Consolas-32"/>
     <use x="714.746094" xlink:href="#Consolas-30"/>
     <use x="769.726562" xlink:href="#Consolas-31"/>
     <use x="824.707031" xlink:href="#Consolas-37"/>
     <use x="879.6875" xlink:href="#Consolas-2d"/>
     <use x="934.667969" xlink:href="#Consolas-30"/>
     <use x="989.648438" xlink:href="#Consolas-39"/>
     <use x="1044.628906" xlink:href="#Consolas-2d"/>
     <use x="1099.609375" xlink:href="#Consolas-32"/>
     <use x="1154.589844" xlink:href="#Consolas-39"/>
     <use x="1209.570312" xlink:href="#Consolas-54"/>
     <use x="1264.550781" xlink:href="#Consolas-31"/>
     <use x="1319.53125" xlink:href="#Consolas-39"/>
     <use x="1374.511719" xlink:href="#Consolas-3a"/>
     <use x="1429.492188" xlink:href="#Consolas-30"/>
     <use x="1484.472656" xlink:href="#Consolas-36"/>
     <use x="1539.453125" xlink:href="#Consolas-2b"/>
     <use x="1594.433594" xlink:href="#Consolas-30"/>
     <use x="1649.414062" xlink:href="#Consolas-38"/>
     <use x="1704.394531" xlink:href="#Consolas-30"/>
     <use x="1759.375" xlink:href="#Consolas-30"/>
    </g>
   </g>
  </g>
 </g>
 <defs>
  <clipPath id="pce1937382b">
   <rect height="554.4" width="837" x="53.755625" y="42.23145"/>
  </clipPath>
 </defs>
</svg>
